<?xml version="1.0" encoding="UTF-8" standalone="no"?>
<svg
   width="2048"
   height="2048"
   viewBox="0 0 2048 2048"
   version="1.1"
   xmlns="http://www.w3.org/2000/svg">
  <path d="M 116.0,306.5 L 29.5,257.0 L 29.5,162.0 L 113.0,112.5 L 199.5,162.0 L 199.5,257.0 L 116.0,306.5 Z" fill="#a16207" stroke="#663d00" stroke-width="2" />
  <path d="M 289.0,306.5 L 202.5,257.0 L 202.5,162.0 L 286.0,112.5 L 372.5,162.0 L 372.5,257.0 L 289.0,306.5 Z" fill="#fcd34d" stroke="#663d00" stroke-width="2" />
  <path d="M 462.0,306.5 L 375.5,257.0 L 375.5,162.0 L 459.0,112.5 L 545.5,162.0 L 545.5,257.0 L 462.0,306.5 Z" fill="#a16207" stroke="#663d00" stroke-width="2" />
  <path d="M 635.0,306.5 L 548.5,257.0 L 548.5,162.0 L 632.0,112.5 L 718.5,162.0 L 718.5,257.0 L 635.0,306.5 Z" fill="#fcd34d" stroke="#663d00" stroke-width="2" />
  <path d="M 808.0,306.5 L 721.5,257.0 L 721.5,162.0 L 805.0,112.5 L 891.5,162.0 L 891.5,257.0 L 808.0,306.5 Z" fill="#a16207" stroke="#663d00" stroke-width="2" />
  <path d="M 981.0,306.5 L 894.5,257.0 L 894.5,162.0 L 978.0,112.5 L 1064.5,162.0 L 1064.5,257.0 L 981.0,306.5 Z" fill="#fcd34d" stroke="#663d00" stroke-width="2" />
  <path d="M 1154.0,306.5 L 1067.5,257.0 L 1067.5,162.0 L 1151.0,112.5 L 1237.5,162.0 L 1237.5,257.0 L 1154.0,306.5 Z" fill="#a16207" stroke="#663d00" stroke-width="2" />
  <path d="M 1327.0,306.5 L 1240.5,257.0 L 1240.5,162.0 L 1324.0,112.5 L 1410.5,162.0 L 1410.5,257.0 L 1327.0,306.5 Z" fill="#fcd34d" stroke="#663d00" stroke-width="2" />
  <path d="M 1500.0,306.5 L 1413.5,257.0 L 1413.5,162.0 L 1497.0,112.5 L 1583.5,162.0 L 1583.5,257.0 L 1500.0,306.5 Z" fill="#a16207" stroke="#663d00" stroke-width="2" />
  <path d="M 1673.0,306.5 L 1586.5,257.0 L 1586.5,162.0 L 1670.0,112.5 L 1756.5,162.0 L 1756.5,257.0 L 1673.0,306.5 Z" fill="#fcd34d" stroke="#663d00" stroke-width="2" />
  <path d="M 1846.0,306.5 L 1759.5,257.0 L 1759.5,162.0 L 1843.0,112.5 L 1929.5,162.0 L 1929.5,257.0 L 1846.0,306.5 Z" fill="#a16207" stroke="#663d00" stroke-width="2" />
  <path d="M 203.0,454.5 L 116.5,405.0 V 310.0 L 200.0,260.5 L 286.5,310.0 V 405.0 Z" fill="#fcd34d" stroke="#663d00" stroke-width="2" />
  <path d="M 376.0,454.5 L 289.5,405.0 V 310.0 L 373.0,260.5 L 459.5,310.0 V 405.0 Z" fill="#a16207" stroke="#663d00" stroke-width="2" />
  <path d="M 549.0,454.5 L 462.5,405.0 V 310.0 L 546.0,260.5 L 632.5,310.0 V 405.0 Z" fill="#fcd34d" stroke="#663d00" stroke-width="2" />
  <path d="M 722.0,454.5 L 635.5,405.0 V 310.0 L 719.0,260.5 L 805.5,310.0 V 405.0 Z" fill="#a16207" stroke="#663d00" stroke-width="2" />
  <path d="M 895.0,454.5 L 808.5,405.0 V 310.0 L 892.0,260.5 L 978.5,310.0 V 405.0 Z" fill="#fcd34d" stroke="#663d00" stroke-width="2" />
  <path d="M 1068.0,454.5 L 981.5,405.0 V 310.0 L 1065.0,260.5 L 1151.5,310.0 V 405.0 Z" fill="#a16207" stroke="#663d00" stroke-width="2" />
  <path d="M 1241.0,454.5 L 1154.5,405.0 V 310.0 L 1238.0,260.5 L 1324.5,310.0 V 405.0 Z" fill="#fcd34d" stroke="#663d00" stroke-width="2" />
  <path d="M 1414.0,454.5 L 1327.5,405.0 V 310.0 L 1411.0,260.5 L 1497.5,310.0 V 405.0 Z" fill="#a16207" stroke="#663d00" stroke-width="2" />
  <path d="M 1587.0,454.5 L 1500.5,405.0 V 310.0 L 1584.0,260.5 L 1670.5,310.0 V 405.0 Z" fill="#fcd34d" stroke="#663d00" stroke-width="2" />
  <path d="M 1760.0,454.5 L 1673.5,405.0 V 310.0 L 1757.0,260.5 L 1843.5,310.0 V 405.0 Z" fill="#a16207" stroke="#663d00" stroke-width="2" />
  <path d="M 1933.0,454.5 L 1846.5,405.0 V 310.0 L 1930.0,260.5 L 2016.5,310.0 V 405.0 Z" fill="#fcd34d" stroke="#663d00" stroke-width="2" />
  <path d="M 290.0,602.5 L 203.5,553.0 L 203.5,458.0 L 287.0,408.5 L 373.5,458.0 L 373.5,553.0 L 290.0,602.5 Z" fill="#a16207" stroke="#663d00" stroke-width="2" />
  <path d="M 636.0,602.5 L 549.5,553.0 L 549.5,458.0 L 633.0,408.5 L 719.5,458.0 L 719.5,553.0 L 636.0,602.5 Z" fill="#a16207" stroke="#663d00" stroke-width="2" />
  <path d="M 982.0,602.5 L 895.5,553.0 L 895.5,458.0 L 979.0,408.5 L 1065.5,458.0 L 1065.5,553.0 L 982.0,602.5 Z" fill="#a16207" stroke="#663d00" stroke-width="2" />
  <path d="M 1328.0,602.5 L 1241.5,553.0 L 1241.5,458.0 L 1325.0,408.5 L 1411.5,458.0 L 1411.5,553.0 L 1328.0,602.5 Z" fill="#a16207" stroke="#663d00" stroke-width="2" />
  <path d="M 1674.0,602.5 L 1587.5,553.0 L 1587.5,458.0 L 1671.0,408.5 L 1757.5,458.0 L 1757.5,553.0 L 1674.0,602.5 Z" fill="#a16207" stroke="#663d00" stroke-width="2" />
  <path d="M 204.0,750.5 L 117.5,701.0 L 117.5,606.0 L 201.0,556.5 L 287.5,606.0 L 287.5,701.0 L 204.0,750.5 Z" fill="#a16207" stroke="#663d00" stroke-width="2" />
  <path d="M 550.0,750.5 L 463.5,701.0 L 463.5,606.0 L 547.0,556.5 L 633.5,606.0 L 633.5,701.0 L 550.0,750.5 Z" fill="#a16207" stroke="#663d00" stroke-width="2" />
  <path d="M 896.0,750.5 L 809.5,701.0 L 809.5,606.0 L 893.0,556.5 L 979.5,606.0 L 979.5,701.0 L 896.0,750.5 Z" fill="#a16207" stroke="#663d00" stroke-width="2" />
  <path d="M 1242.0,750.5 L 1155.5,701.0 L 1155.5,606.0 L 1239.0,556.5 L 1325.5,606.0 L 1325.5,701.0 L 1242.0,750.5 Z" fill="#a16207" stroke="#663d00" stroke-width="2" />
  <path d="M 1588.0,750.5 L 1501.5,701.0 L 1501.5,606.0 L 1585.0,556.5 L 1671.5,606.0 L 1671.5,701.0 L 1588.0,750.5 Z" fill="#a16207" stroke="#663d00" stroke-width="2" />
  <path d="M 1934.0,750.5 L 1847.5,701.0 L 1847.5,606.0 L 1931.0,556.5 L 2017.5,606.0 L 2017.5,701.0 L 1934.0,750.5 Z" fill="#a16207" stroke="#663d00" stroke-width="2" />
  <path d="M 118.0,898.5 L 31.5,849.0 L 31.5,754.0 L 115.0,704.5 L 201.5,754.0 L 201.5,849.0 L 118.0,898.5 Z" fill="#a16207" stroke="#663d00" stroke-width="2" />
  <path d="M 464.0,898.5 L 377.5,849.0 L 377.5,754.0 L 461.0,704.5 L 547.5,754.0 L 547.5,849.0 L 464.0,898.5 Z" fill="#a16207" stroke="#663d00" stroke-width="2" />
  <path d="M 810.0,898.5 L 723.5,849.0 L 723.5,754.0 L 807.0,704.5 L 893.5,754.0 L 893.5,849.0 L 810.0,898.5 Z" fill="#a16207" stroke="#663d00" stroke-width="2" />
  <path d="M 1156.0,898.5 L 1069.5,849.0 L 1069.5,754.0 L 1153.0,704.5 L 1239.5,754.0 L 1239.5,849.0 L 1156.0,898.5 Z" fill="#a16207" stroke="#663d00" stroke-width="2" />
  <path d="M 1502.0,898.5 L 1415.5,849.0 L 1415.5,754.0 L 1499.0,704.5 L 1585.5,754.0 L 1585.5,849.0 L 1502.0,898.5 Z" fill="#a16207" stroke="#663d00" stroke-width="2" />
  <path d="M 1848.0,898.5 L 1761.5,849.0 L 1761.5,754.0 L 1845.0,704.5 L 1931.5,754.0 L 1931.5,849.0 L 1848.0,898.5 Z" fill="#a16207" stroke="#663d00" stroke-width="2" />
  <path d="M 378.0,1046.5 L 291.5,997.0 L 291.5,902.0 L 375.0,852.5 L 461.5,902.0 L 461.5,997.0 L 378.0,1046.5 Z" fill="#a16207" stroke="#663d00" stroke-width="2" />
  <path d="M 724.0,1046.5 L 637.5,997.0 L 637.5,902.0 L 721.0,852.5 L 807.5,902.0 L 807.5,997.0 L 724.0,1046.5 Z" fill="#a16207" stroke="#663d00" stroke-width="2" />
  <path d="M 1070.0,1046.5 L 983.5,997.0 L 983.5,902.0 L 1067.0,852.5 L 1153.5,902.0 L 1153.5,997.0 L 1070.0,1046.5 Z" fill="#a16207" stroke="#663d00" stroke-width="2" />
  <path d="M 1416.0,1046.5 L 1329.5,997.0 L 1329.5,902.0 L 1413.0,852.5 L 1499.5,902.0 L 1499.5,997.0 L 1416.0,1046.5 Z" fill="#a16207" stroke="#663d00" stroke-width="2" />
  <path d="M 1762.0,1046.5 L 1675.5,997.0 L 1675.5,902.0 L 1759.0,852.5 L 1845.5,902.0 L 1845.5,997.0 L 1762.0,1046.5 Z" fill="#a16207" stroke="#663d00" stroke-width="2" />
  <path d="M 292.0,1194.5 L 205.5,1145.0 L 205.5,1050.0 L 289.0,1000.5 L 375.5,1050.0 L 375.5,1145.0 L 292.0,1194.5 Z" fill="#a16207" stroke="#663d00" stroke-width="2" />
  <path d="M 638.0,1194.5 L 551.5,1145.0 L 551.5,1050.0 L 635.0,1000.5 L 721.5,1050.0 L 721.5,1145.0 L 638.0,1194.5 Z" fill="#a16207" stroke="#663d00" stroke-width="2" />
  <path d="M 984.0,1194.5 L 897.5,1145.0 L 897.5,1050.0 L 981.0,1000.5 L 1067.5,1050.0 L 1067.5,1145.0 L 984.0,1194.5 Z" fill="#a16207" stroke="#663d00" stroke-width="2" />
  <path d="M 1330.0,1194.5 L 1243.5,1145.0 L 1243.5,1050.0 L 1327.0,1000.5 L 1413.5,1050.0 L 1413.5,1145.0 L 1330.0,1194.5 Z" fill="#a16207" stroke="#663d00" stroke-width="2" />
  <path d="M 1676.0,1194.5 L 1589.5,1145.0 L 1589.5,1050.0 L 1673.0,1000.5 L 1759.5,1050.0 L 1759.5,1145.0 L 1676.0,1194.5 Z" fill="#a16207" stroke="#663d00" stroke-width="2" />
  <path d="M 206.0,1342.5 L 119.5,1293.0 L 119.5,1198.0 L 203.0,1148.5 L 289.5,1198.0 L 289.5,1293.0 L 206.0,1342.5 Z" fill="#a16207" stroke="#663d00" stroke-width="2" />
  <path d="M 552.0,1342.5 L 465.5,1293.0 L 465.5,1198.0 L 549.0,1148.5 L 635.5,1198.0 L 635.5,1293.0 L 552.0,1342.5 Z" fill="#a16207" stroke="#663d00" stroke-width="2" />
  <path d="M 898.0,1342.5 L 811.5,1293.0 L 811.5,1198.0 L 895.0,1148.5 L 981.5,1198.0 L 981.5,1293.0 L 898.0,1342.5 Z" fill="#a16207" stroke="#663d00" stroke-width="2" />
  <path d="M 1244.0,1342.5 L 1157.5,1293.0 L 1157.5,1198.0 L 1241.0,1148.5 L 1327.5,1198.0 L 1327.5,1293.0 L 1244.0,1342.5 Z" fill="#a16207" stroke="#663d00" stroke-width="2" />
  <path d="M 1590.0,1342.5 L 1503.5,1293.0 L 1503.5,1198.0 L 1587.0,1148.5 L 1673.5,1198.0 L 1673.5,1293.0 L 1590.0,1342.5 Z" fill="#a16207" stroke="#663d00" stroke-width="2" />
  <path d="M 1936.0,1342.5 L 1849.5,1293.0 L 1849.5,1198.0 L 1933.0,1148.5 L 2019.5,1198.0 L 2019.5,1293.0 L 1936.0,1342.5 Z" fill="#a16207" stroke="#663d00" stroke-width="2" />
  <path d="M 120.0,1490.5 L 33.5,1441.0 L 33.5,1346.0 L 117.0,1296.5 L 203.5,1346.0 L 203.5,1441.0 L 120.0,1490.5 Z" fill="#a16207" stroke="#663d00" stroke-width="2" />
  <path d="M 466.0,1490.5 L 379.5,1441.0 L 379.5,1346.0 L 463.0,1296.5 L 549.5,1346.0 L 549.5,1441.0 L 466.0,1490.5 Z" fill="#a16207" stroke="#663d00" stroke-width="2" />
  <path d="M 812.0,1490.5 L 725.5,1441.0 L 725.5,1346.0 L 809.0,1296.5 L 895.5,1346.0 L 895.5,1441.0 L 812.0,1490.5 Z" fill="#a16207" stroke="#663d00" stroke-width="2" />
  <path d="M 1158.0,1490.5 L 1071.5,1441.0 L 1071.5,1346.0 L 1155.0,1296.5 L 1241.5,1346.0 L 1241.5,1441.0 L 1158.0,1490.5 Z" fill="#a16207" stroke="#663d00" stroke-width="2" />
  <path d="M 1504.0,1490.5 L 1417.5,1441.0 L 1417.5,1346.0 L 1501.0,1296.5 L 1587.5,1346.0 L 1587.5,1441.0 L 1504.0,1490.5 Z" fill="#a16207" stroke="#663d00" stroke-width="2" />
  <path d="M 1850.0,1490.5 L 1763.5,1441.0 L 1763.5,1346.0 L 1847.0,1296.5 L 1933.5,1346.0 L 1933.5,1441.0 L 1850.0,1490.5 Z" fill="#a16207" stroke="#663d00" stroke-width="2" />
  <path d="M 380.0,1638.5 L 293.5,1589.0 L 293.5,1494.0 L 377.0,1444.5 L 463.5,1494.0 L 463.5,1589.0 L 380.0,1638.5 Z" fill="#a16207" stroke="#663d00" stroke-width="2" />
  <path d="M 726.0,1638.5 L 639.5,1589.0 L 639.5,1494.0 L 723.0,1444.5 L 809.5,1494.0 L 809.5,1589.0 L 726.0,1638.5 Z" fill="#a16207" stroke="#663d00" stroke-width="2" />
  <path d="M 1072.0,1638.5 L 985.5,1589.0 L 985.5,1494.0 L 1069.0,1444.5 L 1155.5,1494.0 L 1155.5,1589.0 L 1072.0,1638.5 Z" fill="#a16207" stroke="#663d00" stroke-width="2" />
  <path d="M 1418.0,1638.5 L 1331.5,1589.0 L 1331.5,1494.0 L 1415.0,1444.5 L 1501.5,1494.0 L 1501.5,1589.0 L 1418.0,1638.5 Z" fill="#a16207" stroke="#663d00" stroke-width="2" />
  <path d="M 1764.0,1638.5 L 1677.5,1589.0 L 1677.5,1494.0 L 1761.0,1444.5 L 1847.5,1494.0 L 1847.5,1589.0 L 1764.0,1638.5 Z" fill="#a16207" stroke="#663d00" stroke-width="2" />
  <path d="M 294.0,1786.5 L 207.5,1737.0 L 207.5,1642.0 L 291.0,1592.5 L 377.5,1642.0 L 377.5,1737.0 L 294.0,1786.5 Z" fill="#a16207" stroke="#663d00" stroke-width="2" />
  <path d="M 640.0,1786.5 L 553.5,1737.0 L 553.5,1642.0 L 637.0,1592.5 L 723.5,1642.0 L 723.5,1737.0 L 640.0,1786.5 Z" fill="#a16207" stroke="#663d00" stroke-width="2" />
  <path d="M 986.0,1786.5 L 899.5,1737.0 L 899.5,1642.0 L 983.0,1592.5 L 1069.5,1642.0 L 1069.5,1737.0 L 986.0,1786.5 Z" fill="#a16207" stroke="#663d00" stroke-width="2" />
  <path d="M 1332.0,1786.5 L 1245.5,1737.0 L 1245.5,1642.0 L 1329.0,1592.5 L 1415.5,1642.0 L 1415.5,1737.0 L 1332.0,1786.5 Z" fill="#a16207" stroke="#663d00" stroke-width="2" />
  <path d="M 1678.0,1786.5 L 1591.5,1737.0 L 1591.5,1642.0 L 1675.0,1592.5 L 1761.5,1642.0 L 1761.5,1737.0 L 1678.0,1786.5 Z" fill="#a16207" stroke="#663d00" stroke-width="2" />
  <path d="M 208.0,1934.5 L 121.5,1885.0 L 121.5,1790.0 L 205.0,1740.5 L 291.5,1790.0 L 291.5,1885.0 L 208.0,1934.5 Z" fill="#a16207" stroke="#663d00" stroke-width="2" />
  <path d="M 554.0,1934.5 L 467.5,1885.0 L 467.5,1790.0 L 551.0,1740.5 L 637.5,1790.0 L 637.5,1885.0 L 554.0,1934.5 Z" fill="#a16207" stroke="#663d00" stroke-width="2" />
  <path d="M 900.0,1934.5 L 813.5,1885.0 L 813.5,1790.0 L 897.0,1740.5 L 983.5,1790.0 L 983.5,1885.0 L 900.0,1934.5 Z" fill="#a16207" stroke="#663d00" stroke-width="2" />
  <path d="M 1246.0,1934.5 L 1159.5,1885.0 L 1159.5,1790.0 L 1243.0,1740.5 L 1329.5,1790.0 L 1329.5,1885.0 L 1246.0,1934.5 Z" fill="#a16207" stroke="#663d00" stroke-width="2" />
  <path d="M 1592.0,1934.5 L 1505.5,1885.0 L 1505.5,1790.0 L 1589.0,1740.5 L 1675.5,1790.0 L 1675.5,1885.0 L 1592.0,1934.5 Z" fill="#a16207" stroke="#663d00" stroke-width="2" />
  <path d="M 1938.0,1934.5 L 1851.5,1885.0 L 1851.5,1790.0 L 1935.0,1740.5 L 2021.5,1790.0 L 2021.5,1885.0 L 1938.0,1934.5 Z" fill="#a16207" stroke="#663d00" stroke-width="2" />

  <path d="M 1241.0,454.5 L 1154.5,405.0 V 310.0 L 1238.0,260.5 L 1324.5,310.0 V 405.0 Z" fill="#fcd34d" stroke="#663d00" stroke-width="2" />
  <path d="M 203.0,454.5 L 116.5,405.0 V 310.0 L 200.0,260.5 L 286.5,310.0 V 405.0 Z" fill="#fcd34d" stroke="#663d00" stroke-width="2" />
  <path d="M 549.0,454.5 L 462.5,405.0 V 310.0 L 546.0,260.5 L 632.5,310.0 V 405.0 Z" fill="#fcd34d" stroke="#663d00" stroke-width="2" />
  <path d="M 895.0,454.5 L 808.5,405.0 V 310.0 L 892.0,260.5 L 978.5,310.0 V 405.0 Z" fill="#fcd34d" stroke="#663d00" stroke-width="2" />
  <path d="M 1587.0,454.5 L 1500.5,405.0 V 310.0 L 1584.0,260.5 L 1670.5,310.0 V 405.0 Z" fill="#fcd34d" stroke="#663d00" stroke-width="2" />
  <path d="M 1933.0,454.5 L 1846.5,405.0 V 310.0 L 1930.0,260.5 L 2016.5,310.0 V 405.0 Z" fill="#fcd34d" stroke="#663d00" stroke-width="2" />
  <path d="M 293.0,1490.5 L 206.5,1441.0 V 1346.0 L 289.0,1296.5 L 375.5,1346.0 V 1441.0 Z" fill="#fcd34d" stroke="#663d00" stroke-width="2" />
  <path d="M 639.0,1490.5 L 552.5,1441.0 V 1346.0 L 635.0,1296.5 L 721.5,1346.0 V 1441.0 Z" fill="#fcd34d" stroke="#663d00" stroke-width="2" />
  <path d="M 985.0,1490.5 L 898.5,1441.0 V 1346.0 L 981.0,1296.5 L 1067.5,1346.0 V 1441.0 Z" fill="#fcd34d" stroke="#663d00" stroke-width="2" />
  <path d="M 1331.0,1490.5 L 1244.5,1441.0 V 1346.0 L 1327.0,1296.5 L 1413.5,1346.0 V 1441.0 Z" fill="#fcd34d" stroke="#663d00" stroke-width="2" />
  <path d="M 1677.0,1490.5 L 1590.5,1441.0 V 1346.0 L 1673.0,1296.5 L 1759.5,1346.0 V 1441.0 Z" fill="#fcd34d" stroke="#663d00" stroke-width="2" />
  <path d="M 1245.0,1638.5 L 1158.5,1589.0 V 1494.0 L 1241.0,1444.5 L 1327.5,1494.0 V 1589.0 Z" fill="#fcd34d" stroke="#663d00" stroke-width="2" />
  <path d="M 207.0,1638.5 L 120.5,1589.0 V 1494.0 L 203.0,1444.5 L 289.5,1494.0 V 1589.0 Z" fill="#fcd34d" stroke="#663d00" stroke-width="2" />
  <path d="M 553.0,1638.5 L 466.5,1589.0 V 1494.0 L 549.0,1444.5 L 635.5,1494.0 V 1589.0 Z" fill="#fcd34d" stroke="#663d00" stroke-width="2" />
  <path d="M 899.0,1638.5 L 812.5,1589.0 V 1494.0 L 895.0,1444.5 L 981.5,1494.0 V 1589.0 Z" fill="#fcd34d" stroke="#663d00" stroke-width="2" />
  <path d="M 1591.0,1638.5 L 1504.5,1589.0 V 1494.0 L 1587.0,1444.5 L 1673.5,1494.0 V 1589.0 Z" fill="#fcd34d" stroke="#663d00" stroke-width="2" />
  <path d="M 1937.0,1638.5 L 1850.5,1589.0 V 1494.0 L 1933.0,1444.5 L 2019.5,1494.0 V 1589.0 Z" fill="#fcd34d" stroke="#663d00" stroke-width="2" />
  <path d="M 291.0,898.5 L 204.5,849.0 V 754.0 L 288.0,704.5 L 374.5,754.0 V 849.0 Z" fill="#fcd34d" stroke="#663d00" stroke-width="2" />
  <path d="M 637.0,898.5 L 550.5,849.0 V 754.0 L 634.0,704.5 L 720.5,754.0 V 849.0 Z" fill="#fcd34d" stroke="#663d00" stroke-width="2" />
  <path d="M 983.0,898.5 L 896.5,849.0 V 754.0 L 979.0,704.5 L 1065.5,754.0 V 849.0 Z" fill="#fcd34d" stroke="#663d00" stroke-width="2" />
  <path d="M 1329.0,898.5 L 1242.5,849.0 V 754.0 L 1325.0,704.5 L 1411.5,754.0 V 849.0 Z" fill="#fcd34d" stroke="#663d00" stroke-width="2" />
  <path d="M 1675.0,898.5 L 1588.5,849.0 V 754.0 L 1671.0,704.5 L 1757.5,754.0 V 849.0 Z" fill="#fcd34d" stroke="#663d00" stroke-width="2" />
  <path d="M 205.0,1046.5 L 118.5,997.0 V 902.0 L 202.0,852.5 L 288.5,902.0 V 997.0 Z" fill="#fcd34d" stroke="#663d00" stroke-width="2" />
  <path d="M 551.0,1046.5 L 464.5,997.0 V 902.0 L 548.0,852.5 L 634.5,902.0 V 997.0 Z" fill="#fcd34d" stroke="#663d00" stroke-width="2" />
  <path d="M 897.0,1046.5 L 810.5,997.0 V 902.0 L 894.0,852.5 L 980.5,902.0 V 997.0 Z" fill="#fcd34d" stroke="#663d00" stroke-width="2" />
  <path d="M 1243.0,1046.5 L 1156.5,997.0 V 902.0 L 1239.0,852.5 L 1325.5,902.0 V 997.0 Z" fill="#fcd34d" stroke="#663d00" stroke-width="2" />
  <path d="M 1589.0,1046.5 L 1502.5,997.0 V 902.0 L 1585.0,852.5 L 1671.5,902.0 V 997.0 Z" fill="#fcd34d" stroke="#663d00" stroke-width="2" />
  <path d="M 1935.0,1046.5 L 1848.5,997.0 V 902.0 L 1931.0,852.5 L 2017.5,902.0 V 997.0 Z" fill="#fcd34d" stroke="#663d00" stroke-width="2" />
  <path d="M 1155.0,602.5 L 1068.5,553.0 V 458.0 L 1151.0,408.5 L 1237.5,458.0 V 553.0 Z" fill="#fcd34d" stroke="#663d00" stroke-width="2" />
  <path d="M 117.0,602.5 L 30.5,553.0 V 458.0 L 114.0,408.5 L 200.5,458.0 V 553.0 Z" fill="#fcd34d" stroke="#663d00" stroke-width="2" />
  <path d="M 463.0,602.5 L 376.5,553.0 V 458.0 L 460.0,408.5 L 546.5,458.0 V 553.0 Z" fill="#fcd34d" stroke="#663d00" stroke-width="2" />
  <path d="M 809.0,602.5 L 722.5,553.0 V 458.0 L 806.0,408.5 L 892.5,458.0 V 553.0 Z" fill="#fcd34d" stroke="#663d00" stroke-width="2" />
  <path d="M 1501.0,602.5 L 1414.5,553.0 V 458.0 L 1497.0,408.5 L 1583.5,458.0 V 553.0 Z" fill="#fcd34d" stroke="#663d00" stroke-width="2" />
  <path d="M 1847.0,602.5 L 1760.5,553.0 V 458.0 L 1843.0,408.5 L 1929.5,458.0 V 553.0 Z" fill="#fcd34d" stroke="#663d00" stroke-width="2" />
  <path d="M 377.0,750.5 L 290.5,701.0 V 606.0 L 374.0,556.5 L 460.5,606.0 V 701.0 Z" fill="#fcd34d" stroke="#663d00" stroke-width="2" />
  <path d="M 723.0,750.5 L 636.5,701.0 V 606.0 L 720.0,556.5 L 806.5,606.0 V 701.0 Z" fill="#fcd34d" stroke="#663d00" stroke-width="2" />
  <path d="M 1069.0,750.5 L 982.5,701.0 V 606.0 L 1065.0,556.5 L 1151.5,606.0 V 701.0 Z" fill="#fcd34d" stroke="#663d00" stroke-width="2" />
  <path d="M 1415.0,750.5 L 1328.5,701.0 V 606.0 L 1411.0,556.5 L 1497.5,606.0 V 701.0 Z" fill="#fcd34d" stroke="#663d00" stroke-width="2" />
  <path d="M 1761.0,750.5 L 1674.5,701.0 V 606.0 L 1757.0,556.5 L 1843.5,606.0 V 701.0 Z" fill="#fcd34d" stroke="#663d00" stroke-width="2" />
  <path d="M 1159.0,1786.5 L 1072.5,1737.0 V 1642.0 L 1155.0,1592.5 L 1241.5,1642.0 V 1737.0 Z" fill="#fcd34d" stroke="#663d00" stroke-width="2" />
  <path d="M 121.0,1786.5 L 34.5,1737.0 V 1642.0 L 117.0,1592.5 L 203.5,1642.0 V 1737.0 Z" fill="#fcd34d" stroke="#663d00" stroke-width="2" />
  <path d="M 467.0,1786.5 L 380.5,1737.0 V 1642.0 L 463.0,1592.5 L 549.5,1642.0 V 1737.0 Z" fill="#fcd34d" stroke="#663d00" stroke-width="2" />
  <path d="M 813.0,1786.5 L 726.5,1737.0 V 1642.0 L 809.0,1592.5 L 895.5,1642.0 V 1737.0 Z" fill="#fcd34d" stroke="#663d00" stroke-width="2" />
  <path d="M 1505.0,1786.5 L 1418.5,1737.0 V 1642.0 L 1501.0,1592.5 L 1587.5,1642.0 V 1737.0 Z" fill="#fcd34d" stroke="#663d00" stroke-width="2" />
  <path d="M 1851.0,1786.5 L 1764.5,1737.0 V 1642.0 L 1847.0,1592.5 L 1933.5,1642.0 V 1737.0 Z" fill="#fcd34d" stroke="#663d00" stroke-width="2" />
  <path d="M 381.0,1934.5 L 294.5,1885.0 V 1790.0 L 377.0,1740.5 L 463.5,1790.0 V 1885.0 Z" fill="#fcd34d" stroke="#663d00" stroke-width="2" />
  <path d="M 727.0,1934.5 L 640.5,1885.0 V 1790.0 L 723.0,1740.5 L 809.5,1790.0 V 1885.0 Z" fill="#fcd34d" stroke="#663d00" stroke-width="2" />
  <path d="M 1073.0,1934.5 L 986.5,1885.0 V 1790.0 L 1069.0,1740.5 L 1155.5,1790.0 V 1885.0 Z" fill="#fcd34d" stroke="#663d00" stroke-width="2" />
  <path d="M 1419.0,1934.5 L 1332.5,1885.0 V 1790.0 L 1415.0,1740.5 L 1501.5,1790.0 V 1885.0 Z" fill="#fcd34d" stroke="#663d00" stroke-width="2" />
  <path d="M 1765.0,1934.5 L 1678.5,1885.0 V 1790.0 L 1761.0,1740.5 L 1847.5,1790.0 V 1885.0 Z" fill="#fcd34d" stroke="#663d00" stroke-width="2" />
  <path d="M 1157.0,1194.5 L 1070.5,1145.0 V 1050.0 L 1153.0,1000.5 L 1239.5,1050.0 V 1145.0 Z" fill="#fcd34d" stroke="#663d00" stroke-width="2" />
  <path d="M 119.0,1194.5 L 32.5,1145.0 V 1050.0 L 115.0,1000.5 L 201.5,1050.0 V 1145.0 Z" fill="#fcd34d" stroke="#663d00" stroke-width="2" />
  <path d="M 465.0,1194.5 L 378.5,1145.0 V 1050.0 L 461.0,1000.5 L 547.5,1050.0 V 1145.0 Z" fill="#fcd34d" stroke="#663d00" stroke-width="2" />
  <path d="M 811.0,1194.5 L 724.5,1145.0 V 1050.0 L 807.0,1000.5 L 893.5,1050.0 V 1145.0 Z" fill="#fcd34d" stroke="#663d00" stroke-width="2" />
  <path d="M 1503.0,1194.5 L 1416.5,1145.0 V 1050.0 L 1499.0,1000.5 L 1585.5,1050.0 V 1145.0 Z" fill="#fcd34d" stroke="#663d00" stroke-width="2" />
  <path d="M 1849.0,1194.5 L 1762.5,1145.0 V 1050.0 L 1845.0,1000.5 L 1931.5,1050.0 V 1145.0 Z" fill="#fcd34d" stroke="#663d00" stroke-width="2" />
  <path d="M 379.0,1342.5 L 292.5,1293.0 V 1198.0 L 375.0,1148.5 L 461.5,1198.0 V 1293.0 Z" fill="#fcd34d" stroke="#663d00" stroke-width="2" />
  <path d="M 725.0,1342.5 L 638.5,1293.0 V 1198.0 L 721.0,1148.5 L 807.5,1198.0 V 1293.0 Z" fill="#fcd34d" stroke="#663d00" stroke-width="2" />
  <path d="M 1071.0,1342.5 L 984.5,1293.0 V 1198.0 L 1067.0,1148.5 L 1153.5,1198.0 V 1293.0 Z" fill="#fcd34d" stroke="#663d00" stroke-width="2" />
  <path d="M 1417.0,1342.5 L 1330.5,1293.0 V 1198.0 L 1413.0,1148.5 L 1499.5,1198.0 V 1293.0 Z" fill="#fcd34d" stroke="#663d00" stroke-width="2" />
  <path d="M 1763.0,1342.5 L 1676.5,1293.0 V 1198.0 L 1759.0,1148.5 L 1845.5,1198.0 V 1293.0 Z" fill="#fcd34d" stroke="#663d00" stroke-width="2" />
</svg>