<?xml version="1.0" encoding="UTF-8" standalone="no"?>
<svg
   width="2048"
   height="2048"
   viewBox="0 0 2048 2048"
   version="1.1"
   id="svg414"
   sodipodi:docname="Board_CheDuk.svg"
   inkscape:version="1.4.2 (f4327f4, 2025-05-13)"
   xmlns:inkscape="http://www.inkscape.org/namespaces/inkscape"
   xmlns:sodipodi="http://sodipodi.sourceforge.net/DTD/sodipodi-0.dtd"
   xmlns="http://www.w3.org/2000/svg"
   xmlns:svg="http://www.w3.org/2000/svg">
  <defs
     id="defs414" />
  <sodipodi:namedview
     id="namedview414"
     pagecolor="#ffffff"
     bordercolor="#000000"
     borderopacity="0.25"
     inkscape:showpageshadow="2"
     inkscape:pageopacity="0.0"
     inkscape:pagecheckerboard="0"
     inkscape:deskcolor="#d1d1d1"
     showguides="true"
     inkscape:zoom="0.25000001"
     inkscape:cx="549.99999"
     inkscape:cy="901.99998"
     inkscape:window-width="1920"
     inkscape:window-height="1009"
     inkscape:window-x="-8"
     inkscape:window-y="-8"
     inkscape:window-maximized="1"
     inkscape:current-layer="svg414" />
  <path
     d="M 116.0,306.5 L 29.5,257.0 L 29.5,162.0 L 113.0,112.5 L 199.5,162.0 L 199.5,257.0 L 116.0,306.5 Z"
     fill="#000000"
     stroke="none"
     id="path1" />
  <path
     d="M 462.0,306.5 L 375.5,257.0 L 375.5,162.0 L 459.0,112.5 L 545.5,162.0 L 545.5,257.0 L 462.0,306.5 Z"
     fill="#000000"
     stroke="none"
     id="path2" />
  <path
     d="M 808.0,306.5 L 721.5,257.0 L 721.5,162.0 L 805.0,112.5 L 891.5,162.0 L 891.5,257.0 L 808.0,306.5 Z"
     fill="#000000"
     stroke="none"
     id="path3" />
  <path
     d="M 1154.0,306.5 L 1067.5,257.0 L 1067.5,162.0 L 1151.0,112.5 L 1237.5,162.0 L 1237.5,257.0 L 1154.0,306.5 Z"
     fill="#000000"
     stroke="none"
     id="path4" />
  <path
     d="M 1500.0,306.5 L 1413.5,257.0 L 1413.5,162.0 L 1497.0,112.5 L 1583.5,162.0 L 1583.5,257.0 L 1500.0,306.5 Z"
     fill="#000000"
     stroke="none"
     id="path5" />
  <path
     d="M 1846.0,306.5 L 1759.5,257.0 L 1759.5,162.0 L 1843.0,112.5 L 1929.5,162.0 L 1929.5,257.0 L 1846.0,306.5 Z"
     fill="#000000"
     stroke="none"
     id="path6" />
  <path
     d="M 376.0,454.5 L 289.5,405.0 L 289.5,310.0 L 373.0,260.5 L 459.5,310.0 L 459.5,405.0 L 376.0,454.5 Z"
     fill="#000000"
     stroke="none"
     id="path7" />
  <path
     d="M 722.0,454.5 L 635.5,405.0 L 635.5,310.0 L 719.0,260.5 L 805.5,310.0 L 805.5,405.0 L 722.0,454.5 Z"
     fill="#000000"
     stroke="none"
     id="path8" />
  <path
     d="M 1068.0,454.5 L 981.5,405.0 L 981.5,310.0 L 1065.0,260.5 L 1151.5,310.0 L 1151.5,405.0 L 1068.0,454.5 Z"
     fill="#000000"
     stroke="none"
     id="path9" />
  <path
     d="M 1414.0,454.5 L 1327.5,405.0 L 1327.5,310.0 L 1411.0,260.5 L 1497.5,310.0 L 1497.5,405.0 L 1414.0,454.5 Z"
     fill="#000000"
     stroke="none"
     id="path10" />
  <path
     d="M 1760.0,454.5 L 1673.5,405.0 L 1673.5,310.0 L 1757.0,260.5 L 1843.5,310.0 L 1843.5,405.0 L 1760.0,454.5 Z"
     fill="#000000"
     stroke="none"
     id="path11" />
  <path
     d="M 290.0,602.5 L 203.5,553.0 L 203.5,458.0 L 287.0,408.5 L 373.5,458.0 L 373.5,553.0 L 290.0,602.5 Z"
     fill="#000000"
     stroke="none"
     id="path12" />
  <path
     d="M 636.0,602.5 L 549.5,553.0 L 549.5,458.0 L 633.0,408.5 L 719.5,458.0 L 719.5,553.0 L 636.0,602.5 Z"
     fill="#000000"
     stroke="none"
     id="path13" />
  <path
     d="M 982.0,602.5 L 895.5,553.0 L 895.5,458.0 L 979.0,408.5 L 1065.5,458.0 L 1065.5,553.0 L 982.0,602.5 Z"
     fill="#000000"
     stroke="none"
     id="path14" />
  <path
     d="M 1328.0,602.5 L 1241.5,553.0 L 1241.5,458.0 L 1325.0,408.5 L 1411.5,458.0 L 1411.5,553.0 L 1328.0,602.5 Z"
     fill="#000000"
     stroke="none"
     id="path15" />
  <path
     d="M 1674.0,602.5 L 1587.5,553.0 L 1587.5,458.0 L 1671.0,408.5 L 1757.5,458.0 L 1757.5,553.0 L 1674.0,602.5 Z"
     fill="#000000"
     stroke="none"
     id="path16" />
  <path
     d="M 204.0,750.5 L 117.5,701.0 L 117.5,606.0 L 201.0,556.5 L 287.5,606.0 L 287.5,701.0 L 204.0,750.5 Z"
     fill="#000000"
     stroke="none"
     id="path17" />
  <path
     d="M 550.0,750.5 L 463.5,701.0 L 463.5,606.0 L 547.0,556.5 L 633.5,606.0 L 633.5,701.0 L 550.0,750.5 Z"
     fill="#000000"
     stroke="none"
     id="path18" />
  <path
     d="M 896.0,750.5 L 809.5,701.0 L 809.5,606.0 L 893.0,556.5 L 979.5,606.0 L 979.5,701.0 L 896.0,750.5 Z"
     fill="#000000"
     stroke="none"
     id="path19" />
  <path
     d="M 1242.0,750.5 L 1155.5,701.0 L 1155.5,606.0 L 1239.0,556.5 L 1325.5,606.0 L 1325.5,701.0 L 1242.0,750.5 Z"
     fill="#000000"
     stroke="none"
     id="path20" />
  <path
     d="M 1588.0,750.5 L 1501.5,701.0 L 1501.5,606.0 L 1585.0,556.5 L 1671.5,606.0 L 1671.5,701.0 L 1588.0,750.5 Z"
     fill="#000000"
     stroke="none"
     id="path21" />
  <path
     d="M 1934.0,750.5 L 1847.5,701.0 L 1847.5,606.0 L 1931.0,556.5 L 2017.5,606.0 L 2017.5,701.0 L 1934.0,750.5 Z"
     fill="#000000"
     stroke="none"
     id="path22" />
  <path
     d="M 118.0,898.5 L 31.5,849.0 L 31.5,754.0 L 115.0,704.5 L 201.5,754.0 L 201.5,849.0 L 118.0,898.5 Z"
     fill="#000000"
     stroke="none"
     id="path23" />
  <path
     d="M 464.0,898.5 L 377.5,849.0 L 377.5,754.0 L 461.0,704.5 L 547.5,754.0 L 547.5,849.0 L 464.0,898.5 Z"
     fill="#000000"
     stroke="none"
     id="path24" />
  <path
     d="M 810.0,898.5 L 723.5,849.0 L 723.5,754.0 L 807.0,704.5 L 893.5,754.0 L 893.5,849.0 L 810.0,898.5 Z"
     fill="#000000"
     stroke="none"
     id="path25" />
  <path
     d="M 1156.0,898.5 L 1069.5,849.0 L 1069.5,754.0 L 1153.0,704.5 L 1239.5,754.0 L 1239.5,849.0 L 1156.0,898.5 Z"
     fill="#000000"
     stroke="none"
     id="path26" />
  <path
     d="M 1502.0,898.5 L 1415.5,849.0 L 1415.5,754.0 L 1499.0,704.5 L 1585.5,754.0 L 1585.5,849.0 L 1502.0,898.5 Z"
     fill="#000000"
     stroke="none"
     id="path27" />
  <path
     d="M 1848.0,898.5 L 1761.5,849.0 L 1761.5,754.0 L 1845.0,704.5 L 1931.5,754.0 L 1931.5,849.0 L 1848.0,898.5 Z"
     fill="#000000"
     stroke="none"
     id="path28" />
  <path
     d="M 378.0,1046.5 L 291.5,997.0 L 291.5,902.0 L 375.0,852.5 L 461.5,902.0 L 461.5,997.0 L 378.0,1046.5 Z"
     fill="#000000"
     stroke="none"
     id="path29" />
  <path
     d="M 724.0,1046.5 L 637.5,997.0 L 637.5,902.0 L 721.0,852.5 L 807.5,902.0 L 807.5,997.0 L 724.0,1046.5 Z"
     fill="#000000"
     stroke="none"
     id="path30" />
  <path
     d="M 1070.0,1046.5 L 983.5,997.0 L 983.5,902.0 L 1067.0,852.5 L 1153.5,902.0 L 1153.5,997.0 L 1070.0,1046.5 Z"
     fill="#000000"
     stroke="none"
     id="path31" />
  <path
     d="M 1416.0,1046.5 L 1329.5,997.0 L 1329.5,902.0 L 1413.0,852.5 L 1499.5,902.0 L 1499.5,997.0 L 1416.0,1046.5 Z"
     fill="#000000"
     stroke="none"
     id="path32" />
  <path
     d="M 1762.0,1046.5 L 1675.5,997.0 L 1675.5,902.0 L 1759.0,852.5 L 1845.5,902.0 L 1845.5,997.0 L 1762.0,1046.5 Z"
     fill="#000000"
     stroke="none"
     id="path33" />
  <path
     d="M 292.0,1194.5 L 205.5,1145.0 L 205.5,1050.0 L 289.0,1000.5 L 375.5,1050.0 L 375.5,1145.0 L 292.0,1194.5 Z"
     fill="#000000"
     stroke="none"
     id="path34" />
  <path
     d="M 638.0,1194.5 L 551.5,1145.0 L 551.5,1050.0 L 635.0,1000.5 L 721.5,1050.0 L 721.5,1145.0 L 638.0,1194.5 Z"
     fill="#000000"
     stroke="none"
     id="path35" />
  <path
     d="M 984.0,1194.5 L 897.5,1145.0 L 897.5,1050.0 L 981.0,1000.5 L 1067.5,1050.0 L 1067.5,1145.0 L 984.0,1194.5 Z"
     fill="#000000"
     stroke="none"
     id="path36" />
  <path
     d="M 1330.0,1194.5 L 1243.5,1145.0 L 1243.5,1050.0 L 1327.0,1000.5 L 1413.5,1050.0 L 1413.5,1145.0 L 1330.0,1194.5 Z"
     fill="#000000"
     stroke="none"
     id="path37" />
  <path
     d="M 1676.0,1194.5 L 1589.5,1145.0 L 1589.5,1050.0 L 1673.0,1000.5 L 1759.5,1050.0 L 1759.5,1145.0 L 1676.0,1194.5 Z"
     fill="#000000"
     stroke="none"
     id="path38" />
  <path
     d="M 206.0,1342.5 L 119.5,1293.0 L 119.5,1198.0 L 203.0,1148.5 L 289.5,1198.0 L 289.5,1293.0 L 206.0,1342.5 Z"
     fill="#000000"
     stroke="none"
     id="path39" />
  <path
     d="M 552.0,1342.5 L 465.5,1293.0 L 465.5,1198.0 L 549.0,1148.5 L 635.5,1198.0 L 635.5,1293.0 L 552.0,1342.5 Z"
     fill="#000000"
     stroke="none"
     id="path40" />
  <path
     d="M 898.0,1342.5 L 811.5,1293.0 L 811.5,1198.0 L 895.0,1148.5 L 981.5,1198.0 L 981.5,1293.0 L 898.0,1342.5 Z"
     fill="#000000"
     stroke="none"
     id="path41" />
  <path
     d="M 1244.0,1342.5 L 1157.5,1293.0 L 1157.5,1198.0 L 1241.0,1148.5 L 1327.5,1198.0 L 1327.5,1293.0 L 1244.0,1342.5 Z"
     fill="#000000"
     stroke="none"
     id="path42" />
  <path
     d="M 1590.0,1342.5 L 1503.5,1293.0 L 1503.5,1198.0 L 1587.0,1148.5 L 1673.5,1198.0 L 1673.5,1293.0 L 1590.0,1342.5 Z"
     fill="#000000"
     stroke="none"
     id="path43" />
  <path
     d="M 1936.0,1342.5 L 1849.5,1293.0 L 1849.5,1198.0 L 1933.0,1148.5 L 2019.5,1198.0 L 2019.5,1293.0 L 1936.0,1342.5 Z"
     fill="#000000"
     stroke="none"
     id="path44" />
  <path
     d="M 120.0,1490.5 L 33.5,1441.0 L 33.5,1346.0 L 117.0,1296.5 L 203.5,1346.0 L 203.5,1441.0 L 120.0,1490.5 Z"
     fill="#000000"
     stroke="none"
     id="path45" />
  <path
     d="M 466.0,1490.5 L 379.5,1441.0 L 379.5,1346.0 L 463.0,1296.5 L 549.5,1346.0 L 549.5,1441.0 L 466.0,1490.5 Z"
     fill="#000000"
     stroke="none"
     id="path46" />
  <path
     d="M 812.0,1490.5 L 725.5,1441.0 L 725.5,1346.0 L 809.0,1296.5 L 895.5,1346.0 L 895.5,1441.0 L 812.0,1490.5 Z"
     fill="#000000"
     stroke="none"
     id="path47" />
  <path
     d="M 1158.0,1490.5 L 1071.5,1441.0 L 1071.5,1346.0 L 1155.0,1296.5 L 1241.5,1346.0 L 1241.5,1441.0 L 1158.0,1490.5 Z"
     fill="#000000"
     stroke="none"
     id="path48" />
  <path
     d="M 1504.0,1490.5 L 1417.5,1441.0 L 1417.5,1346.0 L 1501.0,1296.5 L 1587.5,1346.0 L 1587.5,1441.0 L 1504.0,1490.5 Z"
     fill="#000000"
     stroke="none"
     id="path49" />
  <path
     d="M 1850.0,1490.5 L 1763.5,1441.0 L 1763.5,1346.0 L 1847.0,1296.5 L 1933.5,1346.0 L 1933.5,1441.0 L 1850.0,1490.5 Z"
     fill="#000000"
     stroke="none"
     id="path50" />
  <path
     d="M 380.0,1638.5 L 293.5,1589.0 L 293.5,1494.0 L 377.0,1444.5 L 463.5,1494.0 L 463.5,1589.0 L 380.0,1638.5 Z"
     fill="#000000"
     stroke="none"
     id="path51" />
  <path
     d="M 726.0,1638.5 L 639.5,1589.0 L 639.5,1494.0 L 723.0,1444.5 L 809.5,1494.0 L 809.5,1589.0 L 726.0,1638.5 Z"
     fill="#000000"
     stroke="none"
     id="path52" />
  <path
     d="M 1072.0,1638.5 L 985.5,1589.0 L 985.5,1494.0 L 1069.0,1444.5 L 1155.5,1494.0 L 1155.5,1589.0 L 1072.0,1638.5 Z"
     fill="#000000"
     stroke="none"
     id="path53" />
  <path
     d="M 1418.0,1638.5 L 1331.5,1589.0 L 1331.5,1494.0 L 1415.0,1444.5 L 1501.5,1494.0 L 1501.5,1589.0 L 1418.0,1638.5 Z"
     fill="#000000"
     stroke="none"
     id="path54" />
  <path
     d="M 1764.0,1638.5 L 1677.5,1589.0 L 1677.5,1494.0 L 1761.0,1444.5 L 1847.5,1494.0 L 1847.5,1589.0 L 1764.0,1638.5 Z"
     fill="#000000"
     stroke="none"
     id="path55" />
  <path
     d="M 294.0,1786.5 L 207.5,1737.0 L 207.5,1642.0 L 291.0,1592.5 L 377.5,1642.0 L 377.5,1737.0 L 294.0,1786.5 Z"
     fill="#000000"
     stroke="none"
     id="path56" />
  <path
     d="M 640.0,1786.5 L 553.5,1737.0 L 553.5,1642.0 L 637.0,1592.5 L 723.5,1642.0 L 723.5,1737.0 L 640.0,1786.5 Z"
     fill="#000000"
     stroke="none"
     id="path57" />
  <path
     d="M 986.0,1786.5 L 899.5,1737.0 L 899.5,1642.0 L 983.0,1592.5 L 1069.5,1642.0 L 1069.5,1737.0 L 986.0,1786.5 Z"
     fill="#000000"
     stroke="none"
     id="path58" />
  <path
     d="M 1332.0,1786.5 L 1245.5,1737.0 L 1245.5,1642.0 L 1329.0,1592.5 L 1415.5,1642.0 L 1415.5,1737.0 L 1332.0,1786.5 Z"
     fill="#000000"
     stroke="none"
     id="path59" />
  <path
     d="M 1678.0,1786.5 L 1591.5,1737.0 L 1591.5,1642.0 L 1675.0,1592.5 L 1761.5,1642.0 L 1761.5,1737.0 L 1678.0,1786.5 Z"
     fill="#000000"
     stroke="none"
     id="path60" />
  <path
     d="M 208.0,1934.5 L 121.5,1885.0 L 121.5,1790.0 L 205.0,1740.5 L 291.5,1790.0 L 291.5,1885.0 L 208.0,1934.5 Z"
     fill="#000000"
     stroke="none"
     id="path61" />
  <path
     d="M 554.0,1934.5 L 467.5,1885.0 L 467.5,1790.0 L 551.0,1740.5 L 637.5,1790.0 L 637.5,1885.0 L 554.0,1934.5 Z"
     fill="#000000"
     stroke="none"
     id="path62" />
  <path
     d="M 900.0,1934.5 L 813.5,1885.0 L 813.5,1790.0 L 897.0,1740.5 L 983.5,1790.0 L 983.5,1885.0 L 900.0,1934.5 Z"
     fill="#000000"
     stroke="none"
     id="path63" />
  <path
     d="M 1246.0,1934.5 L 1159.5,1885.0 L 1159.5,1790.0 L 1243.0,1740.5 L 1329.5,1790.0 L 1329.5,1885.0 L 1246.0,1934.5 Z"
     fill="#000000"
     stroke="none"
     id="path64" />
  <path
     d="M 1592.0,1934.5 L 1505.5,1885.0 L 1505.5,1790.0 L 1589.0,1740.5 L 1675.5,1790.0 L 1675.5,1885.0 L 1592.0,1934.5 Z"
     fill="#000000"
     stroke="none"
     id="path65" />
  <path
     d="M 1938.0,1934.5 L 1851.5,1885.0 L 1851.5,1790.0 L 1935.0,1740.5 L 2021.5,1790.0 L 2021.5,1885.0 L 1938.0,1934.5 Z"
     fill="#000000"
     stroke="none"
     id="path66" />
  <path
     d="M 30.0,258.5 L 29.0,160.5 L 30.0,258.5 Z"
     fill="#808080"
     stroke="none"
     id="path67" />
  <path
     d="M 200.0,258.5 L 199.0,160.5 L 200.0,258.5 Z"
     fill="#808080"
     stroke="none"
     id="path68" />
  <path
     d="M 203.0,258.5 L 202.0,160.5 L 203.0,258.5 Z"
     fill="#808080"
     stroke="none"
     id="path69" />
  <path
     d="M 373.0,258.5 L 372.0,160.5 L 373.0,258.5 Z"
     fill="#808080"
     stroke="none"
     id="path70" />
  <path
     d="M 376.0,258.5 L 375.0,160.5 L 376.0,258.5 Z"
     fill="#808080"
     stroke="none"
     id="path71" />
  <path
     d="M 546.0,258.5 L 545.0,160.5 L 546.0,258.5 Z"
     fill="#808080"
     stroke="none"
     id="path72" />
  <path
     d="M 549.0,258.5 L 548.0,160.5 L 549.0,258.5 Z"
     fill="#808080"
     stroke="none"
     id="path73" />
  <path
     d="M 719.0,258.5 L 718.0,160.5 L 719.0,258.5 Z"
     fill="#808080"
     stroke="none"
     id="path74" />
  <path
     d="M 722.0,258.5 L 721.0,160.5 L 722.0,258.5 Z"
     fill="#808080"
     stroke="none"
     id="path75" />
  <path
     d="M 892.0,258.5 L 891.0,160.5 L 892.0,258.5 Z"
     fill="#808080"
     stroke="none"
     id="path76" />
  <path
     d="M 895.0,258.5 L 894.0,160.5 L 895.0,258.5 Z"
     fill="#808080"
     stroke="none"
     id="path77" />
  <path
     d="M 1065.0,258.5 L 1064.0,160.5 L 1065.0,258.5 Z"
     fill="#808080"
     stroke="none"
     id="path78" />
  <path
     d="M 1068.0,258.5 L 1067.0,160.5 L 1068.0,258.5 Z"
     fill="#808080"
     stroke="none"
     id="path79" />
  <path
     d="M 1238.0,258.5 L 1237.0,160.5 L 1238.0,258.5 Z"
     fill="#808080"
     stroke="none"
     id="path80" />
  <path
     d="M 1241.0,258.5 L 1240.0,160.5 L 1241.0,258.5 Z"
     fill="#808080"
     stroke="none"
     id="path81" />
  <path
     d="M 1411.0,258.5 L 1410.0,160.5 L 1411.0,258.5 Z"
     fill="#808080"
     stroke="none"
     id="path82" />
  <path
     d="M 1414.0,258.5 L 1413.0,160.5 L 1414.0,258.5 Z"
     fill="#808080"
     stroke="none"
     id="path83" />
  <path
     d="M 1584.0,258.5 L 1583.0,160.5 L 1584.0,258.5 Z"
     fill="#808080"
     stroke="none"
     id="path84" />
  <path
     d="M 1587.0,258.5 L 1586.0,160.5 L 1587.0,258.5 Z"
     fill="#808080"
     stroke="none"
     id="path85" />
  <path
     d="M 1757.0,258.5 L 1756.0,160.5 L 1757.0,258.5 Z"
     fill="#808080"
     stroke="none"
     id="path86" />
  <path
     d="M 1760.0,258.5 L 1759.0,160.5 L 1760.0,258.5 Z"
     fill="#808080"
     stroke="none"
     id="path87" />
  <path
     d="M 1930.0,258.5 L 1929.0,160.5 L 1930.0,258.5 Z"
     fill="#808080"
     stroke="none"
     id="path88" />
  <path
     d="M 117.0,406.5 L 116.0,308.5 L 117.0,406.5 Z"
     fill="#808080"
     stroke="none"
     id="path89" />
  <path
     d="M 287.0,406.5 L 286.0,308.5 L 287.0,406.5 Z"
     fill="#808080"
     stroke="none"
     id="path90" />
  <path
     d="M 290.0,406.5 L 289.0,308.5 L 290.0,406.5 Z"
     fill="#808080"
     stroke="none"
     id="path91" />
  <path
     d="M 460.0,406.5 L 459.0,308.5 L 460.0,406.5 Z"
     fill="#808080"
     stroke="none"
     id="path92" />
  <path
     d="M 463.0,406.5 L 462.0,308.5 L 463.0,406.5 Z"
     fill="#808080"
     stroke="none"
     id="path93" />
  <path
     d="M 633.0,406.5 L 632.0,308.5 L 633.0,406.5 Z"
     fill="#808080"
     stroke="none"
     id="path94" />
  <path
     d="M 636.0,406.5 L 635.0,308.5 L 636.0,406.5 Z"
     fill="#808080"
     stroke="none"
     id="path95" />
  <path
     d="M 806.0,406.5 L 805.0,308.5 L 806.0,406.5 Z"
     fill="#808080"
     stroke="none"
     id="path96" />
  <path
     d="M 809.0,406.5 L 808.0,308.5 L 809.0,406.5 Z"
     fill="#808080"
     stroke="none"
     id="path97" />
  <path
     d="M 979.0,406.5 L 978.0,308.5 L 979.0,406.5 Z"
     fill="#808080"
     stroke="none"
     id="path98" />
  <path
     d="M 982.0,406.5 L 981.0,308.5 L 982.0,406.5 Z"
     fill="#808080"
     stroke="none"
     id="path99" />
  <path
     d="M 1152.0,406.5 L 1151.0,308.5 L 1152.0,406.5 Z"
     fill="#808080"
     stroke="none"
     id="path100" />
  <path
     d="M 1155.0,406.5 L 1154.0,308.5 L 1155.0,406.5 Z"
     fill="#808080"
     stroke="none"
     id="path101" />
  <path
     d="M 1325.0,406.5 L 1324.0,308.5 L 1325.0,406.5 Z"
     fill="#808080"
     stroke="none"
     id="path102" />
  <path
     d="M 1328.0,406.5 L 1327.0,308.5 L 1328.0,406.5 Z"
     fill="#808080"
     stroke="none"
     id="path103" />
  <path
     d="M 1498.0,406.5 L 1497.0,308.5 L 1498.0,406.5 Z"
     fill="#808080"
     stroke="none"
     id="path104" />
  <path
     d="M 1501.0,406.5 L 1500.0,308.5 L 1501.0,406.5 Z"
     fill="#808080"
     stroke="none"
     id="path105" />
  <path
     d="M 1671.0,406.5 L 1670.0,308.5 L 1671.0,406.5 Z"
     fill="#808080"
     stroke="none"
     id="path106" />
  <path
     d="M 1674.0,406.5 L 1673.0,308.5 L 1674.0,406.5 Z"
     fill="#808080"
     stroke="none"
     id="path107" />
  <path
     d="M 1844.0,406.5 L 1843.0,308.5 L 1844.0,406.5 Z"
     fill="#808080"
     stroke="none"
     id="path108" />
  <path
     d="M 1847.0,406.5 L 1846.0,308.5 L 1847.0,406.5 Z"
     fill="#808080"
     stroke="none"
     id="path109" />
  <path
     d="M 2017.0,406.5 L 2016.0,308.5 L 2017.0,406.5 Z"
     fill="#808080"
     stroke="none"
     id="path110" />
  <path
     d="M 31.0,554.5 L 30.0,456.5 L 31.0,554.5 Z"
     fill="#808080"
     stroke="none"
     id="path111" />
  <path
     d="M 201.0,554.5 L 200.0,456.5 L 201.0,554.5 Z"
     fill="#808080"
     stroke="none"
     id="path112" />
  <path
     d="M 204.0,554.5 L 203.0,456.5 L 204.0,554.5 Z"
     fill="#808080"
     stroke="none"
     id="path113" />
  <path
     d="M 374.0,554.5 L 373.0,456.5 L 374.0,554.5 Z"
     fill="#808080"
     stroke="none"
     id="path114" />
  <path
     d="M 377.0,554.5 L 376.0,456.5 L 377.0,554.5 Z"
     fill="#808080"
     stroke="none"
     id="path115" />
  <path
     d="M 547.0,554.5 L 546.0,456.5 L 547.0,554.5 Z"
     fill="#808080"
     stroke="none"
     id="path116" />
  <path
     d="M 550.0,554.5 L 549.0,456.5 L 550.0,554.5 Z"
     fill="#808080"
     stroke="none"
     id="path117" />
  <path
     d="M 720.0,554.5 L 719.0,456.5 L 720.0,554.5 Z"
     fill="#808080"
     stroke="none"
     id="path118" />
  <path
     d="M 723.0,554.5 L 722.0,456.5 L 723.0,554.5 Z"
     fill="#808080"
     stroke="none"
     id="path119" />
  <path
     d="M 893.0,554.5 L 892.0,456.5 L 893.0,554.5 Z"
     fill="#808080"
     stroke="none"
     id="path120" />
  <path
     d="M 896.0,554.5 L 895.0,456.5 L 896.0,554.5 Z"
     fill="#808080"
     stroke="none"
     id="path121" />
  <path
     d="M 1066.0,554.5 L 1065.0,456.5 L 1066.0,554.5 Z"
     fill="#808080"
     stroke="none"
     id="path122" />
  <path
     d="M 1069.0,554.5 L 1068.0,456.5 L 1069.0,554.5 Z"
     fill="#808080"
     stroke="none"
     id="path123" />
  <path
     d="M 1239.0,554.5 L 1238.0,456.5 L 1239.0,554.5 Z"
     fill="#808080"
     stroke="none"
     id="path124" />
  <path
     d="M 1242.0,554.5 L 1241.0,456.5 L 1242.0,554.5 Z"
     fill="#808080"
     stroke="none"
     id="path125" />
  <path
     d="M 1412.0,554.5 L 1411.0,456.5 L 1412.0,554.5 Z"
     fill="#808080"
     stroke="none"
     id="path126" />
  <path
     d="M 1415.0,554.5 L 1414.0,456.5 L 1415.0,554.5 Z"
     fill="#808080"
     stroke="none"
     id="path127" />
  <path
     d="M 1585.0,554.5 L 1584.0,456.5 L 1585.0,554.5 Z"
     fill="#808080"
     stroke="none"
     id="path128" />
  <path
     d="M 1588.0,554.5 L 1587.0,456.5 L 1588.0,554.5 Z"
     fill="#808080"
     stroke="none"
     id="path129" />
  <path
     d="M 1758.0,554.5 L 1757.0,456.5 L 1758.0,554.5 Z"
     fill="#808080"
     stroke="none"
     id="path130" />
  <path
     d="M 1761.0,554.5 L 1760.0,456.5 L 1761.0,554.5 Z"
     fill="#808080"
     stroke="none"
     id="path131" />
  <path
     d="M 1931.0,554.5 L 1930.0,456.5 L 1931.0,554.5 Z"
     fill="#808080"
     stroke="none"
     id="path132" />
  <path
     d="M 118.0,702.5 L 117.0,604.5 L 118.0,702.5 Z"
     fill="#808080"
     stroke="none"
     id="path133" />
  <path
     d="M 288.0,702.5 L 287.0,604.5 L 288.0,702.5 Z"
     fill="#808080"
     stroke="none"
     id="path134" />
  <path
     d="M 291.0,702.5 L 290.0,604.5 L 291.0,702.5 Z"
     fill="#808080"
     stroke="none"
     id="path135" />
  <path
     d="M 461.0,702.5 L 460.0,604.5 L 461.0,702.5 Z"
     fill="#808080"
     stroke="none"
     id="path136" />
  <path
     d="M 464.0,702.5 L 463.0,604.5 L 464.0,702.5 Z"
     fill="#808080"
     stroke="none"
     id="path137" />
  <path
     d="M 634.0,702.5 L 633.0,604.5 L 634.0,702.5 Z"
     fill="#808080"
     stroke="none"
     id="path138" />
  <path
     d="M 637.0,702.5 L 636.0,604.5 L 637.0,702.5 Z"
     fill="#808080"
     stroke="none"
     id="path139" />
  <path
     d="M 807.0,702.5 L 806.0,604.5 L 807.0,702.5 Z"
     fill="#808080"
     stroke="none"
     id="path140" />
  <path
     d="M 810.0,702.5 L 809.0,604.5 L 810.0,702.5 Z"
     fill="#808080"
     stroke="none"
     id="path141" />
  <path
     d="M 980.0,702.5 L 979.0,604.5 L 980.0,702.5 Z"
     fill="#808080"
     stroke="none"
     id="path142" />
  <path
     d="M 983.0,702.5 L 982.0,604.5 L 983.0,702.5 Z"
     fill="#808080"
     stroke="none"
     id="path143" />
  <path
     d="M 1153.0,702.5 L 1152.0,604.5 L 1153.0,702.5 Z"
     fill="#808080"
     stroke="none"
     id="path144" />
  <path
     d="M 1156.0,702.5 L 1155.0,604.5 L 1156.0,702.5 Z"
     fill="#808080"
     stroke="none"
     id="path145" />
  <path
     d="M 1326.0,702.5 L 1325.0,604.5 L 1326.0,702.5 Z"
     fill="#808080"
     stroke="none"
     id="path146" />
  <path
     d="M 1329.0,702.5 L 1328.0,604.5 L 1329.0,702.5 Z"
     fill="#808080"
     stroke="none"
     id="path147" />
  <path
     d="M 1499.0,702.5 L 1498.0,604.5 L 1499.0,702.5 Z"
     fill="#808080"
     stroke="none"
     id="path148" />
  <path
     d="M 1502.0,702.5 L 1501.0,604.5 L 1502.0,702.5 Z"
     fill="#808080"
     stroke="none"
     id="path149" />
  <path
     d="M 1672.0,702.5 L 1671.0,604.5 L 1672.0,702.5 Z"
     fill="#808080"
     stroke="none"
     id="path150" />
  <path
     d="M 1675.0,702.5 L 1674.0,604.5 L 1675.0,702.5 Z"
     fill="#808080"
     stroke="none"
     id="path151" />
  <path
     d="M 1845.0,702.5 L 1844.0,604.5 L 1845.0,702.5 Z"
     fill="#808080"
     stroke="none"
     id="path152" />
  <path
     d="M 1848.0,702.5 L 1847.0,604.5 L 1848.0,702.5 Z"
     fill="#808080"
     stroke="none"
     id="path153" />
  <path
     d="M 2018.0,702.5 L 2017.0,604.5 L 2018.0,702.5 Z"
     fill="#808080"
     stroke="none"
     id="path154" />
  <path
     d="M 32.0,850.5 L 31.0,752.5 L 32.0,850.5 Z"
     fill="#808080"
     stroke="none"
     id="path155" />
  <path
     d="M 202.0,850.5 L 201.0,752.5 L 202.0,850.5 Z"
     fill="#808080"
     stroke="none"
     id="path156" />
  <path
     d="M 205.0,850.5 L 204.0,752.5 L 205.0,850.5 Z"
     fill="#808080"
     stroke="none"
     id="path157" />
  <path
     d="M 375.0,850.5 L 374.0,752.5 L 375.0,850.5 Z"
     fill="#808080"
     stroke="none"
     id="path158" />
  <path
     d="M 378.0,850.5 L 377.0,752.5 L 378.0,850.5 Z"
     fill="#808080"
     stroke="none"
     id="path159" />
  <path
     d="M 548.0,850.5 L 547.0,752.5 L 548.0,850.5 Z"
     fill="#808080"
     stroke="none"
     id="path160" />
  <path
     d="M 551.0,850.5 L 550.0,752.5 L 551.0,850.5 Z"
     fill="#808080"
     stroke="none"
     id="path161" />
  <path
     d="M 721.0,850.5 L 720.0,752.5 L 721.0,850.5 Z"
     fill="#808080"
     stroke="none"
     id="path162" />
  <path
     d="M 724.0,850.5 L 723.0,752.5 L 724.0,850.5 Z"
     fill="#808080"
     stroke="none"
     id="path163" />
  <path
     d="M 894.0,850.5 L 893.0,752.5 L 894.0,850.5 Z"
     fill="#808080"
     stroke="none"
     id="path164" />
  <path
     d="M 897.0,850.5 L 896.0,752.5 L 897.0,850.5 Z"
     fill="#808080"
     stroke="none"
     id="path165" />
  <path
     d="M 1067.0,850.5 L 1066.0,752.5 L 1067.0,850.5 Z"
     fill="#808080"
     stroke="none"
     id="path166" />
  <path
     d="M 1070.0,850.5 L 1069.0,752.5 L 1070.0,850.5 Z"
     fill="#808080"
     stroke="none"
     id="path167" />
  <path
     d="M 1240.0,850.5 L 1239.0,752.5 L 1240.0,850.5 Z"
     fill="#808080"
     stroke="none"
     id="path168" />
  <path
     d="M 1243.0,850.5 L 1242.0,752.5 L 1243.0,850.5 Z"
     fill="#808080"
     stroke="none"
     id="path169" />
  <path
     d="M 1413.0,850.5 L 1412.0,752.5 L 1413.0,850.5 Z"
     fill="#808080"
     stroke="none"
     id="path170" />
  <path
     d="M 1416.0,850.5 L 1415.0,752.5 L 1416.0,850.5 Z"
     fill="#808080"
     stroke="none"
     id="path171" />
  <path
     d="M 1586.0,850.5 L 1585.0,752.5 L 1586.0,850.5 Z"
     fill="#808080"
     stroke="none"
     id="path172" />
  <path
     d="M 1589.0,850.5 L 1588.0,752.5 L 1589.0,850.5 Z"
     fill="#808080"
     stroke="none"
     id="path173" />
  <path
     d="M 1759.0,850.5 L 1758.0,752.5 L 1759.0,850.5 Z"
     fill="#808080"
     stroke="none"
     id="path174" />
  <path
     d="M 1762.0,850.5 L 1761.0,752.5 L 1762.0,850.5 Z"
     fill="#808080"
     stroke="none"
     id="path175" />
  <path
     d="M 1932.0,850.5 L 1931.0,752.5 L 1932.0,850.5 Z"
     fill="#808080"
     stroke="none"
     id="path176" />
  <path
     d="M 119.0,998.5 L 118.0,900.5 L 119.0,998.5 Z"
     fill="#808080"
     stroke="none"
     id="path177" />
  <path
     d="M 289.0,998.5 L 288.0,900.5 L 289.0,998.5 Z"
     fill="#808080"
     stroke="none"
     id="path178" />
  <path
     d="M 292.0,998.5 L 291.0,900.5 L 292.0,998.5 Z"
     fill="#808080"
     stroke="none"
     id="path179" />
  <path
     d="M 462.0,998.5 L 461.0,900.5 L 462.0,998.5 Z"
     fill="#808080"
     stroke="none"
     id="path180" />
  <path
     d="M 465.0,998.5 L 464.0,900.5 L 465.0,998.5 Z"
     fill="#808080"
     stroke="none"
     id="path181" />
  <path
     d="M 635.0,998.5 L 634.0,900.5 L 635.0,998.5 Z"
     fill="#808080"
     stroke="none"
     id="path182" />
  <path
     d="M 638.0,998.5 L 637.0,900.5 L 638.0,998.5 Z"
     fill="#808080"
     stroke="none"
     id="path183" />
  <path
     d="M 808.0,998.5 L 807.0,900.5 L 808.0,998.5 Z"
     fill="#808080"
     stroke="none"
     id="path184" />
  <path
     d="M 811.0,998.5 L 810.0,900.5 L 811.0,998.5 Z"
     fill="#808080"
     stroke="none"
     id="path185" />
  <path
     d="M 981.0,998.5 L 980.0,900.5 L 981.0,998.5 Z"
     fill="#808080"
     stroke="none"
     id="path186" />
  <path
     d="M 984.0,998.5 L 983.0,900.5 L 984.0,998.5 Z"
     fill="#808080"
     stroke="none"
     id="path187" />
  <path
     d="M 1154.0,998.5 L 1153.0,900.5 L 1154.0,998.5 Z"
     fill="#808080"
     stroke="none"
     id="path188" />
  <path
     d="M 1157.0,998.5 L 1156.0,900.5 L 1157.0,998.5 Z"
     fill="#808080"
     stroke="none"
     id="path189" />
  <path
     d="M 1327.0,998.5 L 1326.0,900.5 L 1327.0,998.5 Z"
     fill="#808080"
     stroke="none"
     id="path190" />
  <path
     d="M 1330.0,998.5 L 1329.0,900.5 L 1330.0,998.5 Z"
     fill="#808080"
     stroke="none"
     id="path191" />
  <path
     d="M 1500.0,998.5 L 1499.0,900.5 L 1500.0,998.5 Z"
     fill="#808080"
     stroke="none"
     id="path192" />
  <path
     d="M 1503.0,998.5 L 1502.0,900.5 L 1503.0,998.5 Z"
     fill="#808080"
     stroke="none"
     id="path193" />
  <path
     d="M 1673.0,998.5 L 1672.0,900.5 L 1673.0,998.5 Z"
     fill="#808080"
     stroke="none"
     id="path194" />
  <path
     d="M 1676.0,998.5 L 1675.0,900.5 L 1676.0,998.5 Z"
     fill="#808080"
     stroke="none"
     id="path195" />
  <path
     d="M 1846.0,998.5 L 1845.0,900.5 L 1846.0,998.5 Z"
     fill="#808080"
     stroke="none"
     id="path196" />
  <path
     d="M 1849.0,998.5 L 1848.0,900.5 L 1849.0,998.5 Z"
     fill="#808080"
     stroke="none"
     id="path197" />
  <path
     d="M 2019.0,998.5 L 2018.0,900.5 L 2019.0,998.5 Z"
     fill="#808080"
     stroke="none"
     id="path198" />
  <path
     d="M 33.0,1146.5 L 32.0,1048.5 L 33.0,1146.5 Z"
     fill="#808080"
     stroke="none"
     id="path199" />
  <path
     d="M 203.0,1146.5 L 202.0,1048.5 L 203.0,1146.5 Z"
     fill="#808080"
     stroke="none"
     id="path200" />
  <path
     d="M 206.0,1146.5 L 205.0,1048.5 L 206.0,1146.5 Z"
     fill="#808080"
     stroke="none"
     id="path201" />
  <path
     d="M 376.0,1146.5 L 375.0,1048.5 L 376.0,1146.5 Z"
     fill="#808080"
     stroke="none"
     id="path202" />
  <path
     d="M 379.0,1146.5 L 378.0,1048.5 L 379.0,1146.5 Z"
     fill="#808080"
     stroke="none"
     id="path203" />
  <path
     d="M 549.0,1146.5 L 548.0,1048.5 L 549.0,1146.5 Z"
     fill="#808080"
     stroke="none"
     id="path204" />
  <path
     d="M 552.0,1146.5 L 551.0,1048.5 L 552.0,1146.5 Z"
     fill="#808080"
     stroke="none"
     id="path205" />
  <path
     d="M 722.0,1146.5 L 721.0,1048.5 L 722.0,1146.5 Z"
     fill="#808080"
     stroke="none"
     id="path206" />
  <path
     d="M 725.0,1146.5 L 724.0,1048.5 L 725.0,1146.5 Z"
     fill="#808080"
     stroke="none"
     id="path207" />
  <path
     d="M 895.0,1146.5 L 894.0,1048.5 L 895.0,1146.5 Z"
     fill="#808080"
     stroke="none"
     id="path208" />
  <path
     d="M 898.0,1146.5 L 897.0,1048.5 L 898.0,1146.5 Z"
     fill="#808080"
     stroke="none"
     id="path209" />
  <path
     d="M 1068.0,1146.5 L 1067.0,1048.5 L 1068.0,1146.5 Z"
     fill="#808080"
     stroke="none"
     id="path210" />
  <path
     d="M 1071.0,1146.5 L 1070.0,1048.5 L 1071.0,1146.5 Z"
     fill="#808080"
     stroke="none"
     id="path211" />
  <path
     d="M 1241.0,1146.5 L 1240.0,1048.5 L 1241.0,1146.5 Z"
     fill="#808080"
     stroke="none"
     id="path212" />
  <path
     d="M 1244.0,1146.5 L 1243.0,1048.5 L 1244.0,1146.5 Z"
     fill="#808080"
     stroke="none"
     id="path213" />
  <path
     d="M 1414.0,1146.5 L 1413.0,1048.5 L 1414.0,1146.5 Z"
     fill="#808080"
     stroke="none"
     id="path214" />
  <path
     d="M 1417.0,1146.5 L 1416.0,1048.5 L 1417.0,1146.5 Z"
     fill="#808080"
     stroke="none"
     id="path215" />
  <path
     d="M 1587.0,1146.5 L 1586.0,1048.5 L 1587.0,1146.5 Z"
     fill="#808080"
     stroke="none"
     id="path216" />
  <path
     d="M 1590.0,1146.5 L 1589.0,1048.5 L 1590.0,1146.5 Z"
     fill="#808080"
     stroke="none"
     id="path217" />
  <path
     d="M 1760.0,1146.5 L 1759.0,1048.5 L 1760.0,1146.5 Z"
     fill="#808080"
     stroke="none"
     id="path218" />
  <path
     d="M 1763.0,1146.5 L 1762.0,1048.5 L 1763.0,1146.5 Z"
     fill="#808080"
     stroke="none"
     id="path219" />
  <path
     d="M 1933.0,1146.5 L 1932.0,1048.5 L 1933.0,1146.5 Z"
     fill="#808080"
     stroke="none"
     id="path220" />
  <path
     d="M 120.0,1294.5 L 119.0,1196.5 L 120.0,1294.5 Z"
     fill="#808080"
     stroke="none"
     id="path221" />
  <path
     d="M 290.0,1294.5 L 289.0,1196.5 L 290.0,1294.5 Z"
     fill="#808080"
     stroke="none"
     id="path222" />
  <path
     d="M 293.0,1294.5 L 292.0,1196.5 L 293.0,1294.5 Z"
     fill="#808080"
     stroke="none"
     id="path223" />
  <path
     d="M 463.0,1294.5 L 462.0,1196.5 L 463.0,1294.5 Z"
     fill="#808080"
     stroke="none"
     id="path224" />
  <path
     d="M 466.0,1294.5 L 465.0,1196.5 L 466.0,1294.5 Z"
     fill="#808080"
     stroke="none"
     id="path225" />
  <path
     d="M 636.0,1294.5 L 635.0,1196.5 L 636.0,1294.5 Z"
     fill="#808080"
     stroke="none"
     id="path226" />
  <path
     d="M 639.0,1294.5 L 638.0,1196.5 L 639.0,1294.5 Z"
     fill="#808080"
     stroke="none"
     id="path227" />
  <path
     d="M 809.0,1294.5 L 808.0,1196.5 L 809.0,1294.5 Z"
     fill="#808080"
     stroke="none"
     id="path228" />
  <path
     d="M 812.0,1294.5 L 811.0,1196.5 L 812.0,1294.5 Z"
     fill="#808080"
     stroke="none"
     id="path229" />
  <path
     d="M 982.0,1294.5 L 981.0,1196.5 L 982.0,1294.5 Z"
     fill="#808080"
     stroke="none"
     id="path230" />
  <path
     d="M 985.0,1294.5 L 984.0,1196.5 L 985.0,1294.5 Z"
     fill="#808080"
     stroke="none"
     id="path231" />
  <path
     d="M 1155.0,1294.5 L 1154.0,1196.5 L 1155.0,1294.5 Z"
     fill="#808080"
     stroke="none"
     id="path232" />
  <path
     d="M 1158.0,1294.5 L 1157.0,1196.5 L 1158.0,1294.5 Z"
     fill="#808080"
     stroke="none"
     id="path233" />
  <path
     d="M 1328.0,1294.5 L 1327.0,1196.5 L 1328.0,1294.5 Z"
     fill="#808080"
     stroke="none"
     id="path234" />
  <path
     d="M 1331.0,1294.5 L 1330.0,1196.5 L 1331.0,1294.5 Z"
     fill="#808080"
     stroke="none"
     id="path235" />
  <path
     d="M 1501.0,1294.5 L 1500.0,1196.5 L 1501.0,1294.5 Z"
     fill="#808080"
     stroke="none"
     id="path236" />
  <path
     d="M 1504.0,1294.5 L 1503.0,1196.5 L 1504.0,1294.5 Z"
     fill="#808080"
     stroke="none"
     id="path237" />
  <path
     d="M 1674.0,1294.5 L 1673.0,1196.5 L 1674.0,1294.5 Z"
     fill="#808080"
     stroke="none"
     id="path238" />
  <path
     d="M 1677.0,1294.5 L 1676.0,1196.5 L 1677.0,1294.5 Z"
     fill="#808080"
     stroke="none"
     id="path239" />
  <path
     d="M 1847.0,1294.5 L 1846.0,1196.5 L 1847.0,1294.5 Z"
     fill="#808080"
     stroke="none"
     id="path240" />
  <path
     d="M 1850.0,1294.5 L 1849.0,1196.5 L 1850.0,1294.5 Z"
     fill="#808080"
     stroke="none"
     id="path241" />
  <path
     d="M 2020.0,1294.5 L 2019.0,1196.5 L 2020.0,1294.5 Z"
     fill="#808080"
     stroke="none"
     id="path242" />
  <path
     d="M 34.0,1442.5 L 33.0,1344.5 L 34.0,1442.5 Z"
     fill="#808080"
     stroke="none"
     id="path243" />
  <path
     d="M 204.0,1442.5 L 203.0,1344.5 L 204.0,1442.5 Z"
     fill="#808080"
     stroke="none"
     id="path244" />
  <path
     d="M 207.0,1442.5 L 206.0,1344.5 L 207.0,1442.5 Z"
     fill="#808080"
     stroke="none"
     id="path245" />
  <path
     d="M 377.0,1442.5 L 376.0,1344.5 L 377.0,1442.5 Z"
     fill="#808080"
     stroke="none"
     id="path246" />
  <path
     d="M 380.0,1442.5 L 379.0,1344.5 L 380.0,1442.5 Z"
     fill="#808080"
     stroke="none"
     id="path247" />
  <path
     d="M 550.0,1442.5 L 549.0,1344.5 L 550.0,1442.5 Z"
     fill="#808080"
     stroke="none"
     id="path248" />
  <path
     d="M 553.0,1442.5 L 552.0,1344.5 L 553.0,1442.5 Z"
     fill="#808080"
     stroke="none"
     id="path249" />
  <path
     d="M 723.0,1442.5 L 722.0,1344.5 L 723.0,1442.5 Z"
     fill="#808080"
     stroke="none"
     id="path250" />
  <path
     d="M 726.0,1442.5 L 725.0,1344.5 L 726.0,1442.5 Z"
     fill="#808080"
     stroke="none"
     id="path251" />
  <path
     d="M 896.0,1442.5 L 895.0,1344.5 L 896.0,1442.5 Z"
     fill="#808080"
     stroke="none"
     id="path252" />
  <path
     d="M 899.0,1442.5 L 898.0,1344.5 L 899.0,1442.5 Z"
     fill="#808080"
     stroke="none"
     id="path253" />
  <path
     d="M 1069.0,1442.5 L 1068.0,1344.5 L 1069.0,1442.5 Z"
     fill="#808080"
     stroke="none"
     id="path254" />
  <path
     d="M 1072.0,1442.5 L 1071.0,1344.5 L 1072.0,1442.5 Z"
     fill="#808080"
     stroke="none"
     id="path255" />
  <path
     d="M 1242.0,1442.5 L 1241.0,1344.5 L 1242.0,1442.5 Z"
     fill="#808080"
     stroke="none"
     id="path256" />
  <path
     d="M 1245.0,1442.5 L 1244.0,1344.5 L 1245.0,1442.5 Z"
     fill="#808080"
     stroke="none"
     id="path257" />
  <path
     d="M 1415.0,1442.5 L 1414.0,1344.5 L 1415.0,1442.5 Z"
     fill="#808080"
     stroke="none"
     id="path258" />
  <path
     d="M 1418.0,1442.5 L 1417.0,1344.5 L 1418.0,1442.5 Z"
     fill="#808080"
     stroke="none"
     id="path259" />
  <path
     d="M 1588.0,1442.5 L 1587.0,1344.5 L 1588.0,1442.5 Z"
     fill="#808080"
     stroke="none"
     id="path260" />
  <path
     d="M 1591.0,1442.5 L 1590.0,1344.5 L 1591.0,1442.5 Z"
     fill="#808080"
     stroke="none"
     id="path261" />
  <path
     d="M 1761.0,1442.5 L 1760.0,1344.5 L 1761.0,1442.5 Z"
     fill="#808080"
     stroke="none"
     id="path262" />
  <path
     d="M 1764.0,1442.5 L 1763.0,1344.5 L 1764.0,1442.5 Z"
     fill="#808080"
     stroke="none"
     id="path263" />
  <path
     d="M 1934.0,1442.5 L 1933.0,1344.5 L 1934.0,1442.5 Z"
     fill="#808080"
     stroke="none"
     id="path264" />
  <path
     d="M 121.0,1590.5 L 120.0,1492.5 L 121.0,1590.5 Z"
     fill="#808080"
     stroke="none"
     id="path265" />
  <path
     d="M 291.0,1590.5 L 290.0,1492.5 L 291.0,1590.5 Z"
     fill="#808080"
     stroke="none"
     id="path266" />
  <path
     d="M 294.0,1590.5 L 293.0,1492.5 L 294.0,1590.5 Z"
     fill="#808080"
     stroke="none"
     id="path267" />
  <path
     d="M 464.0,1590.5 L 463.0,1492.5 L 464.0,1590.5 Z"
     fill="#808080"
     stroke="none"
     id="path268" />
  <path
     d="M 467.0,1590.5 L 466.0,1492.5 L 467.0,1590.5 Z"
     fill="#808080"
     stroke="none"
     id="path269" />
  <path
     d="M 637.0,1590.5 L 636.0,1492.5 L 637.0,1590.5 Z"
     fill="#808080"
     stroke="none"
     id="path270" />
  <path
     d="M 640.0,1590.5 L 639.0,1492.5 L 640.0,1590.5 Z"
     fill="#808080"
     stroke="none"
     id="path271" />
  <path
     d="M 810.0,1590.5 L 809.0,1492.5 L 810.0,1590.5 Z"
     fill="#808080"
     stroke="none"
     id="path272" />
  <path
     d="M 813.0,1590.5 L 812.0,1492.5 L 813.0,1590.5 Z"
     fill="#808080"
     stroke="none"
     id="path273" />
  <path
     d="M 983.0,1590.5 L 982.0,1492.5 L 983.0,1590.5 Z"
     fill="#808080"
     stroke="none"
     id="path274" />
  <path
     d="M 986.0,1590.5 L 985.0,1492.5 L 986.0,1590.5 Z"
     fill="#808080"
     stroke="none"
     id="path275" />
  <path
     d="M 1156.0,1590.5 L 1155.0,1492.5 L 1156.0,1590.5 Z"
     fill="#808080"
     stroke="none"
     id="path276" />
  <path
     d="M 1159.0,1590.5 L 1158.0,1492.5 L 1159.0,1590.5 Z"
     fill="#808080"
     stroke="none"
     id="path277" />
  <path
     d="M 1329.0,1590.5 L 1328.0,1492.5 L 1329.0,1590.5 Z"
     fill="#808080"
     stroke="none"
     id="path278" />
  <path
     d="M 1332.0,1590.5 L 1331.0,1492.5 L 1332.0,1590.5 Z"
     fill="#808080"
     stroke="none"
     id="path279" />
  <path
     d="M 1502.0,1590.5 L 1501.0,1492.5 L 1502.0,1590.5 Z"
     fill="#808080"
     stroke="none"
     id="path280" />
  <path
     d="M 1505.0,1590.5 L 1504.0,1492.5 L 1505.0,1590.5 Z"
     fill="#808080"
     stroke="none"
     id="path281" />
  <path
     d="M 1675.0,1590.5 L 1674.0,1492.5 L 1675.0,1590.5 Z"
     fill="#808080"
     stroke="none"
     id="path282" />
  <path
     d="M 1678.0,1590.5 L 1677.0,1492.5 L 1678.0,1590.5 Z"
     fill="#808080"
     stroke="none"
     id="path283" />
  <path
     d="M 1848.0,1590.5 L 1847.0,1492.5 L 1848.0,1590.5 Z"
     fill="#808080"
     stroke="none"
     id="path284" />
  <path
     d="M 1851.0,1590.5 L 1850.0,1492.5 L 1851.0,1590.5 Z"
     fill="#808080"
     stroke="none"
     id="path285" />
  <path
     d="M 2021.0,1590.5 L 2020.0,1492.5 L 2021.0,1590.5 Z"
     fill="#808080"
     stroke="none"
     id="path286" />
  <path
     d="M 35.0,1738.5 L 34.0,1640.5 L 35.0,1738.5 Z"
     fill="#808080"
     stroke="none"
     id="path287" />
  <path
     d="M 205.0,1738.5 L 204.0,1640.5 L 205.0,1738.5 Z"
     fill="#808080"
     stroke="none"
     id="path288" />
  <path
     d="M 208.0,1738.5 L 207.0,1640.5 L 208.0,1738.5 Z"
     fill="#808080"
     stroke="none"
     id="path289" />
  <path
     d="M 378.0,1738.5 L 377.0,1640.5 L 378.0,1738.5 Z"
     fill="#808080"
     stroke="none"
     id="path290" />
  <path
     d="M 381.0,1738.5 L 380.0,1640.5 L 381.0,1738.5 Z"
     fill="#808080"
     stroke="none"
     id="path291" />
  <path
     d="M 551.0,1738.5 L 550.0,1640.5 L 551.0,1738.5 Z"
     fill="#808080"
     stroke="none"
     id="path292" />
  <path
     d="M 554.0,1738.5 L 553.0,1640.5 L 554.0,1738.5 Z"
     fill="#808080"
     stroke="none"
     id="path293" />
  <path
     d="M 724.0,1738.5 L 723.0,1640.5 L 724.0,1738.5 Z"
     fill="#808080"
     stroke="none"
     id="path294" />
  <path
     d="M 727.0,1738.5 L 726.0,1640.5 L 727.0,1738.5 Z"
     fill="#808080"
     stroke="none"
     id="path295" />
  <path
     d="M 897.0,1738.5 L 896.0,1640.5 L 897.0,1738.5 Z"
     fill="#808080"
     stroke="none"
     id="path296" />
  <path
     d="M 900.0,1738.5 L 899.0,1640.5 L 900.0,1738.5 Z"
     fill="#808080"
     stroke="none"
     id="path297" />
  <path
     d="M 1070.0,1738.5 L 1069.0,1640.5 L 1070.0,1738.5 Z"
     fill="#808080"
     stroke="none"
     id="path298" />
  <path
     d="M 1073.0,1738.5 L 1072.0,1640.5 L 1073.0,1738.5 Z"
     fill="#808080"
     stroke="none"
     id="path299" />
  <path
     d="M 1243.0,1738.5 L 1242.0,1640.5 L 1243.0,1738.5 Z"
     fill="#808080"
     stroke="none"
     id="path300" />
  <path
     d="M 1246.0,1738.5 L 1245.0,1640.5 L 1246.0,1738.5 Z"
     fill="#808080"
     stroke="none"
     id="path301" />
  <path
     d="M 1416.0,1738.5 L 1415.0,1640.5 L 1416.0,1738.5 Z"
     fill="#808080"
     stroke="none"
     id="path302" />
  <path
     d="M 1419.0,1738.5 L 1418.0,1640.5 L 1419.0,1738.5 Z"
     fill="#808080"
     stroke="none"
     id="path303" />
  <path
     d="M 1589.0,1738.5 L 1588.0,1640.5 L 1589.0,1738.5 Z"
     fill="#808080"
     stroke="none"
     id="path304" />
  <path
     d="M 1592.0,1738.5 L 1591.0,1640.5 L 1592.0,1738.5 Z"
     fill="#808080"
     stroke="none"
     id="path305" />
  <path
     d="M 1762.0,1738.5 L 1761.0,1640.5 L 1762.0,1738.5 Z"
     fill="#808080"
     stroke="none"
     id="path306" />
  <path
     d="M 1765.0,1738.5 L 1764.0,1640.5 L 1765.0,1738.5 Z"
     fill="#808080"
     stroke="none"
     id="path307" />
  <path
     d="M 1935.0,1738.5 L 1934.0,1640.5 L 1935.0,1738.5 Z"
     fill="#808080"
     stroke="none"
     id="path308" />
  <path
     d="M 122.0,1886.5 L 121.0,1788.5 L 122.0,1886.5 Z"
     fill="#808080"
     stroke="none"
     id="path309" />
  <path
     d="M 292.0,1886.5 L 291.0,1788.5 L 292.0,1886.5 Z"
     fill="#808080"
     stroke="none"
     id="path310" />
  <path
     d="M 295.0,1886.5 L 294.0,1788.5 L 295.0,1886.5 Z"
     fill="#808080"
     stroke="none"
     id="path311" />
  <path
     d="M 465.0,1886.5 L 464.0,1788.5 L 465.0,1886.5 Z"
     fill="#808080"
     stroke="none"
     id="path312" />
  <path
     d="M 468.0,1886.5 L 467.0,1788.5 L 468.0,1886.5 Z"
     fill="#808080"
     stroke="none"
     id="path313" />
  <path
     d="M 638.0,1886.5 L 637.0,1788.5 L 638.0,1886.5 Z"
     fill="#808080"
     stroke="none"
     id="path314" />
  <path
     d="M 641.0,1886.5 L 640.0,1788.5 L 641.0,1886.5 Z"
     fill="#808080"
     stroke="none"
     id="path315" />
  <path
     d="M 811.0,1886.5 L 810.0,1788.5 L 811.0,1886.5 Z"
     fill="#808080"
     stroke="none"
     id="path316" />
  <path
     d="M 814.0,1886.5 L 813.0,1788.5 L 814.0,1886.5 Z"
     fill="#808080"
     stroke="none"
     id="path317" />
  <path
     d="M 984.0,1886.5 L 983.0,1788.5 L 984.0,1886.5 Z"
     fill="#808080"
     stroke="none"
     id="path318" />
  <path
     d="M 987.0,1886.5 L 986.0,1788.5 L 987.0,1886.5 Z"
     fill="#808080"
     stroke="none"
     id="path319" />
  <path
     d="M 1157.0,1886.5 L 1156.0,1788.5 L 1157.0,1886.5 Z"
     fill="#808080"
     stroke="none"
     id="path320" />
  <path
     d="M 1160.0,1886.5 L 1159.0,1788.5 L 1160.0,1886.5 Z"
     fill="#808080"
     stroke="none"
     id="path321" />
  <path
     d="M 1330.0,1886.5 L 1329.0,1788.5 L 1330.0,1886.5 Z"
     fill="#808080"
     stroke="none"
     id="path322" />
  <path
     d="M 1333.0,1886.5 L 1332.0,1788.5 L 1333.0,1886.5 Z"
     fill="#808080"
     stroke="none"
     id="path323" />
  <path
     d="M 1503.0,1886.5 L 1502.0,1788.5 L 1503.0,1886.5 Z"
     fill="#808080"
     stroke="none"
     id="path324" />
  <path
     d="M 1506.0,1886.5 L 1505.0,1788.5 L 1506.0,1886.5 Z"
     fill="#808080"
     stroke="none"
     id="path325" />
  <path
     d="M 1676.0,1886.5 L 1675.0,1788.5 L 1676.0,1886.5 Z"
     fill="#808080"
     stroke="none"
     id="path326" />
  <path
     d="M 1679.0,1886.5 L 1678.0,1788.5 L 1679.0,1886.5 Z"
     fill="#808080"
     stroke="none"
     id="path327" />
  <path
     d="M 1849.0,1886.5 L 1848.0,1788.5 L 1849.0,1886.5 Z"
     fill="#808080"
     stroke="none"
     id="path328" />
  <path
     d="M 1852.0,1886.5 L 1851.0,1788.5 L 1852.0,1886.5 Z"
     fill="#808080"
     stroke="none"
     id="path329" />
  <path
     d="M 2022.0,1886.5 L 2021.0,1788.5 L 2022.0,1886.5 Z"
     fill="#808080"
     stroke="none"
     id="path330" />
  <path
     d="M 2047.0,2047.5 L -0.5,2047.0 L 0.0,-0.5 L 2047.5,0.0 L 2047.0,2047.5 Z"
     fill="#f2a65e"
     stroke="none"
     id="path331" />
  <path
     d="M 116.5,307.0 L 200.5,258.0 L 200.5,161.0 L 113.0,111.5 L 28.5,161.0 L 28.5,258.0 L 116.5,307.0 Z"
     fill="#f2a65e"
     stroke="none"
     id="path332" />
  <path
     d="M 117.5,603.0 L 201.5,554.0 L 201.5,457.0 L 158.5,432.0 L 203.0,455.5 L 287.5,406.0 L 287.5,309.0 L 244.5,284.0 L 289.0,307.5 L 373.5,258.0 L 373.5,161.0 L 288.0,111.5 L 201.5,161.0 L 201.5,258.0 L 244.5,283.0 L 200.0,259.5 L 115.5,309.0 L 115.5,406.0 L 158.5,431.0 L 114.0,407.5 L 29.5,457.0 L 29.5,554.0 L 117.5,603.0 Z"
     fill="#f2a65e"
     stroke="none"
     id="path333" />
  <path
     d="M 118.5,899.0 L 202.5,850.0 L 202.5,753.0 L 159.5,728.0 L 204.0,751.5 L 288.5,702.0 L 288.5,605.0 L 245.5,580.0 L 290.0,603.5 L 374.5,554.0 L 374.5,457.0 L 331.5,432.0 L 376.0,455.5 L 460.5,406.0 L 460.5,309.0 L 417.5,284.0 L 462.0,307.5 L 546.5,258.0 L 546.5,161.0 L 461.0,111.5 L 374.5,161.0 L 374.5,258.0 L 417.5,283.0 L 373.0,259.5 L 288.5,309.0 L 288.5,406.0 L 331.5,431.0 L 287.0,407.5 L 202.5,457.0 L 202.5,554.0 L 245.5,579.0 L 201.0,555.5 L 116.5,605.0 L 116.5,702.0 L 159.5,727.0 L 115.0,703.5 L 30.5,753.0 L 30.5,850.0 L 118.5,899.0 Z"
     fill="#f2a65e"
     stroke="none"
     id="path334" />
  <path
     d="M 119.5,1195.0 L 203.5,1146.0 L 203.5,1049.0 L 160.5,1024.0 L 205.0,1047.5 L 289.5,998.0 L 289.5,901.0 L 246.5,876.0 L 291.0,899.5 L 375.5,850.0 L 375.5,753.0 L 332.5,728.0 L 377.0,751.5 L 461.5,702.0 L 461.5,605.0 L 418.5,580.0 L 463.0,603.5 L 547.5,554.0 L 547.5,457.0 L 504.5,432.0 L 549.0,455.5 L 633.5,406.0 L 633.5,309.0 L 590.5,284.0 L 635.0,307.5 L 719.5,258.0 L 719.5,161.0 L 634.0,111.5 L 547.5,161.0 L 547.5,258.0 L 590.5,283.0 L 546.0,259.5 L 461.5,309.0 L 461.5,406.0 L 504.5,431.0 L 460.0,407.5 L 375.5,457.0 L 375.5,554.0 L 418.5,579.0 L 374.0,555.5 L 289.5,605.0 L 289.5,702.0 L 332.5,727.0 L 288.0,703.5 L 203.5,753.0 L 203.5,850.0 L 246.5,875.0 L 202.0,851.5 L 117.5,901.0 L 117.5,998.0 L 160.5,1023.0 L 116.0,999.5 L 31.5,1049.0 L 31.5,1146.0 L 119.5,1195.0 Z"
     fill="#f2a65e"
     stroke="none"
     id="path335" />
  <path
     d="M 120.5,1491.0 L 204.5,1442.0 L 204.5,1345.0 L 161.5,1320.0 L 206.0,1343.5 L 290.5,1294.0 L 290.5,1197.0 L 247.5,1172.0 L 292.0,1195.5 L 376.5,1146.0 L 376.5,1049.0 L 333.5,1024.0 L 378.0,1047.5 L 462.5,998.0 L 462.5,901.0 L 419.5,876.0 L 464.0,899.5 L 548.5,850.0 L 548.5,753.0 L 505.5,728.0 L 550.0,751.5 L 634.5,702.0 L 634.5,605.0 L 591.5,580.0 L 636.0,603.5 L 720.5,554.0 L 720.5,457.0 L 677.5,432.0 L 722.0,455.5 L 806.5,406.0 L 806.5,309.0 L 763.5,284.0 L 808.0,307.5 L 892.5,258.0 L 892.5,161.0 L 807.0,111.5 L 720.5,161.0 L 720.5,258.0 L 763.5,283.0 L 719.0,259.5 L 634.5,309.0 L 634.5,406.0 L 677.5,431.0 L 633.0,407.5 L 548.5,457.0 L 548.5,554.0 L 591.5,579.0 L 547.0,555.5 L 462.5,605.0 L 462.5,702.0 L 505.5,727.0 L 461.0,703.5 L 376.5,753.0 L 376.5,850.0 L 419.5,875.0 L 375.0,851.5 L 290.5,901.0 L 290.5,998.0 L 333.5,1023.0 L 289.0,999.5 L 204.5,1049.0 L 204.5,1146.0 L 247.5,1171.0 L 203.0,1147.5 L 118.5,1197.0 L 118.5,1294.0 L 161.5,1319.0 L 117.0,1295.5 L 32.5,1345.0 L 32.5,1442.0 L 120.5,1491.0 Z"
     fill="#f2a65e"
     stroke="none"
     id="path336" />
  <path
     d="M 121.5,1787.0 L 205.5,1738.0 L 205.5,1641.0 L 162.5,1616.0 L 207.0,1639.5 L 291.5,1590.0 L 291.5,1493.0 L 248.5,1468.0 L 293.0,1491.5 L 377.5,1442.0 L 377.5,1345.0 L 334.5,1320.0 L 379.0,1343.5 L 463.5,1294.0 L 463.5,1197.0 L 420.5,1172.0 L 465.0,1195.5 L 549.5,1146.0 L 549.5,1049.0 L 506.5,1024.0 L 551.0,1047.5 L 635.5,998.0 L 635.5,901.0 L 592.5,876.0 L 637.0,899.5 L 721.5,850.0 L 721.5,753.0 L 678.5,728.0 L 723.0,751.5 L 807.5,702.0 L 807.5,605.0 L 764.5,580.0 L 809.0,603.5 L 893.5,554.0 L 893.5,457.0 L 850.5,432.0 L 895.0,455.5 L 979.5,406.0 L 979.5,309.0 L 936.5,284.0 L 981.0,307.5 L 1065.5,258.0 L 1065.5,161.0 L 980.0,111.5 L 893.5,161.0 L 893.5,258.0 L 936.5,283.0 L 892.0,259.5 L 807.5,309.0 L 807.5,406.0 L 850.5,431.0 L 806.0,407.5 L 721.5,457.0 L 721.5,554.0 L 764.5,579.0 L 720.0,555.5 L 635.5,605.0 L 635.5,702.0 L 678.5,727.0 L 634.0,703.5 L 549.5,753.0 L 549.5,850.0 L 592.5,875.0 L 548.0,851.5 L 463.5,901.0 L 463.5,998.0 L 506.5,1023.0 L 462.0,999.5 L 377.5,1049.0 L 377.5,1146.0 L 420.5,1171.0 L 376.0,1147.5 L 291.5,1197.0 L 291.5,1294.0 L 334.5,1319.0 L 290.0,1295.5 L 205.5,1345.0 L 205.5,1442.0 L 248.5,1467.0 L 204.0,1443.5 L 119.5,1493.0 L 119.5,1590.0 L 162.5,1615.0 L 118.0,1591.5 L 33.5,1641.0 L 33.5,1738.0 L 121.5,1787.0 Z"
     fill="#f2a65e"
     stroke="none"
     id="path337" />
  <path
     d="M 208.5,1935.0 L 292.5,1886.0 L 292.5,1789.0 L 249.5,1764.0 L 294.0,1787.5 L 378.5,1738.0 L 378.5,1641.0 L 335.5,1616.0 L 380.0,1639.5 L 464.5,1590.0 L 464.5,1493.0 L 421.5,1468.0 L 466.0,1491.5 L 550.5,1442.0 L 550.5,1345.0 L 507.5,1320.0 L 552.0,1343.5 L 636.5,1294.0 L 636.5,1197.0 L 593.5,1172.0 L 638.0,1195.5 L 722.5,1146.0 L 722.5,1049.0 L 679.5,1024.0 L 724.0,1047.5 L 808.5,998.0 L 808.5,901.0 L 765.5,876.0 L 810.0,899.5 L 894.5,850.0 L 894.5,753.0 L 851.5,728.0 L 896.0,751.5 L 980.5,702.0 L 980.5,605.0 L 937.5,580.0 L 982.0,603.5 L 1066.5,554.0 L 1066.5,457.0 L 1023.5,432.0 L 1068.0,455.5 L 1152.5,406.0 L 1152.5,309.0 L 1109.5,284.0 L 1154.0,307.5 L 1238.5,258.0 L 1238.5,161.0 L 1153.0,111.5 L 1066.5,161.0 L 1066.5,258.0 L 1109.5,283.0 L 1065.0,259.5 L 980.5,309.0 L 980.5,406.0 L 1023.5,431.0 L 979.0,407.5 L 894.5,457.0 L 894.5,554.0 L 937.5,579.0 L 893.0,555.5 L 808.5,605.0 L 808.5,702.0 L 851.5,727.0 L 807.0,703.5 L 722.5,753.0 L 722.5,850.0 L 765.5,875.0 L 721.0,851.5 L 636.5,901.0 L 636.5,998.0 L 679.5,1023.0 L 635.0,999.5 L 550.5,1049.0 L 550.5,1146.0 L 593.5,1171.0 L 549.0,1147.5 L 464.5,1197.0 L 464.5,1294.0 L 507.5,1319.0 L 463.0,1295.5 L 378.5,1345.0 L 378.5,1442.0 L 421.5,1467.0 L 377.0,1443.5 L 292.5,1493.0 L 292.5,1590.0 L 335.5,1615.0 L 291.0,1591.5 L 206.5,1641.0 L 206.5,1738.0 L 249.5,1763.0 L 205.0,1739.5 L 120.5,1789.0 L 120.5,1886.0 L 208.5,1935.0 Z"
     fill="#f2a65e"
     stroke="none"
     id="path338" />
  <path
     d="M 1154,306.5 1067.5,257 v -95 l 83.5,-49.5 86.5,49.5 v 95 z"
     fill="#ffffff"
     stroke="none"
     id="path351-1"
     style="fill:#000000;stroke:#7b7b7b;stroke-opacity:1" />
  <path
     d="M 381.5,1935.0 L 465.5,1886.0 L 465.5,1789.0 L 422.5,1764.0 L 467.0,1787.5 L 551.5,1738.0 L 551.5,1641.0 L 508.5,1616.0 L 553.0,1639.5 L 637.5,1590.0 L 637.5,1493.0 L 594.5,1468.0 L 639.0,1491.5 L 723.5,1442.0 L 723.5,1345.0 L 680.5,1320.0 L 725.0,1343.5 L 809.5,1294.0 L 809.5,1197.0 L 766.5,1172.0 L 811.0,1195.5 L 895.5,1146.0 L 895.5,1049.0 L 852.5,1024.0 L 897.0,1047.5 L 981.5,998.0 L 981.5,901.0 L 938.5,876.0 L 983.0,899.5 L 1067.5,850.0 L 1067.5,753.0 L 1024.5,728.0 L 1069.0,751.5 L 1153.5,702.0 L 1153.5,605.0 L 1110.5,580.0 L 1155.0,603.5 L 1239.5,554.0 L 1239.5,457.0 L 1196.5,432.0 L 1241.0,455.5 L 1325.5,406.0 L 1325.5,309.0 L 1282.5,284.0 L 1327.0,307.5 L 1411.5,258.0 L 1411.5,161.0 L 1326.0,111.5 L 1239.5,161.0 L 1239.5,258.0 L 1282.5,283.0 L 1238.0,259.5 L 1153.5,309.0 L 1153.5,406.0 L 1196.5,431.0 L 1152.0,407.5 L 1067.5,457.0 L 1067.5,554.0 L 1110.5,579.0 L 1066.0,555.5 L 981.5,605.0 L 981.5,702.0 L 1024.5,727.0 L 980.0,703.5 L 895.5,753.0 L 895.5,850.0 L 938.5,875.0 L 894.0,851.5 L 809.5,901.0 L 809.5,998.0 L 852.5,1023.0 L 808.0,999.5 L 723.5,1049.0 L 723.5,1146.0 L 766.5,1171.0 L 722.0,1147.5 L 637.5,1197.0 L 637.5,1294.0 L 680.5,1319.0 L 636.0,1295.5 L 551.5,1345.0 L 551.5,1442.0 L 594.5,1467.0 L 550.0,1443.5 L 465.5,1493.0 L 465.5,1590.0 L 508.5,1615.0 L 464.0,1591.5 L 379.5,1641.0 L 379.5,1738.0 L 422.5,1763.0 L 378.0,1739.5 L 293.5,1789.0 L 293.5,1886.0 L 381.5,1935.0 Z"
     fill="#f2a65e"
     stroke="none"
     id="path339" />
  <path
     d="M 554.5,1935.0 L 638.5,1886.0 L 638.5,1789.0 L 595.5,1764.0 L 640.0,1787.5 L 724.5,1738.0 L 724.5,1641.0 L 681.5,1616.0 L 726.0,1639.5 L 810.5,1590.0 L 810.5,1493.0 L 767.5,1468.0 L 812.0,1491.5 L 896.5,1442.0 L 896.5,1345.0 L 853.5,1320.0 L 898.0,1343.5 L 982.5,1294.0 L 982.5,1197.0 L 939.5,1172.0 L 984.0,1195.5 L 1068.5,1146.0 L 1068.5,1049.0 L 1025.5,1024.0 L 1070.0,1047.5 L 1154.5,998.0 L 1154.5,901.0 L 1111.5,876.0 L 1156.0,899.5 L 1240.5,850.0 L 1240.5,753.0 L 1197.5,728.0 L 1242.0,751.5 L 1326.5,702.0 L 1326.5,605.0 L 1283.5,580.0 L 1328.0,603.5 L 1412.5,554.0 L 1412.5,457.0 L 1369.5,432.0 L 1414.0,455.5 L 1498.5,406.0 L 1498.5,309.0 L 1455.5,284.0 L 1500.0,307.5 L 1584.5,258.0 L 1584.5,161.0 L 1499.0,111.5 L 1412.5,161.0 L 1412.5,258.0 L 1455.5,283.0 L 1411.0,259.5 L 1326.5,309.0 L 1326.5,406.0 L 1369.5,431.0 L 1325.0,407.5 L 1240.5,457.0 L 1240.5,554.0 L 1283.5,579.0 L 1239.0,555.5 L 1154.5,605.0 L 1154.5,702.0 L 1197.5,727.0 L 1153.0,703.5 L 1068.5,753.0 L 1068.5,850.0 L 1111.5,875.0 L 1067.0,851.5 L 982.5,901.0 L 982.5,998.0 L 1025.5,1023.0 L 981.0,999.5 L 896.5,1049.0 L 896.5,1146.0 L 939.5,1171.0 L 895.0,1147.5 L 810.5,1197.0 L 810.5,1294.0 L 853.5,1319.0 L 809.0,1295.5 L 724.5,1345.0 L 724.5,1442.0 L 767.5,1467.0 L 723.0,1443.5 L 638.5,1493.0 L 638.5,1590.0 L 681.5,1615.0 L 637.0,1591.5 L 552.5,1641.0 L 552.5,1738.0 L 595.5,1763.0 L 551.0,1739.5 L 466.5,1789.0 L 466.5,1886.0 L 554.5,1935.0 Z"
     fill="#f2a65e"
     stroke="none"
     id="path340" />
  <path
     d="M 727.5,1935.0 L 811.5,1886.0 L 811.5,1789.0 L 768.5,1764.0 L 813.0,1787.5 L 897.5,1738.0 L 897.5,1641.0 L 854.5,1616.0 L 899.0,1639.5 L 983.5,1590.0 L 983.5,1493.0 L 940.5,1468.0 L 985.0,1491.5 L 1069.5,1442.0 L 1069.5,1345.0 L 1026.5,1320.0 L 1071.0,1343.5 L 1155.5,1294.0 L 1155.5,1197.0 L 1112.5,1172.0 L 1157.0,1195.5 L 1241.5,1146.0 L 1241.5,1049.0 L 1198.5,1024.0 L 1243.0,1047.5 L 1327.5,998.0 L 1327.5,901.0 L 1284.5,876.0 L 1329.0,899.5 L 1413.5,850.0 L 1413.5,753.0 L 1370.5,728.0 L 1415.0,751.5 L 1499.5,702.0 L 1499.5,605.0 L 1456.5,580.0 L 1501.0,603.5 L 1585.5,554.0 L 1585.5,457.0 L 1542.5,432.0 L 1587.0,455.5 L 1671.5,406.0 L 1671.5,309.0 L 1628.5,284.0 L 1673.0,307.5 L 1757.5,258.0 L 1757.5,161.0 L 1672.0,111.5 L 1585.5,161.0 L 1585.5,258.0 L 1628.5,283.0 L 1584.0,259.5 L 1499.5,309.0 L 1499.5,406.0 L 1542.5,431.0 L 1498.0,407.5 L 1413.5,457.0 L 1413.5,554.0 L 1456.5,579.0 L 1412.0,555.5 L 1327.5,605.0 L 1327.5,702.0 L 1370.5,727.0 L 1326.0,703.5 L 1241.5,753.0 L 1241.5,850.0 L 1284.5,875.0 L 1240.0,851.5 L 1155.5,901.0 L 1155.5,998.0 L 1198.5,1023.0 L 1154.0,999.5 L 1069.5,1049.0 L 1069.5,1146.0 L 1112.5,1171.0 L 1068.0,1147.5 L 983.5,1197.0 L 983.5,1294.0 L 1026.5,1319.0 L 982.0,1295.5 L 897.5,1345.0 L 897.5,1442.0 L 940.5,1467.0 L 896.0,1443.5 L 811.5,1493.0 L 811.5,1590.0 L 854.5,1615.0 L 810.0,1591.5 L 725.5,1641.0 L 725.5,1738.0 L 768.5,1763.0 L 724.0,1739.5 L 639.5,1789.0 L 639.5,1886.0 L 727.5,1935.0 Z"
     fill="#f2a65e"
     stroke="none"
     id="path341" />
  <path
     d="M 900.5,1935.0 L 984.5,1886.0 L 984.5,1789.0 L 941.5,1764.0 L 986.0,1787.5 L 1070.5,1738.0 L 1070.5,1641.0 L 1027.5,1616.0 L 1072.0,1639.5 L 1156.5,1590.0 L 1156.5,1493.0 L 1113.5,1468.0 L 1158.0,1491.5 L 1242.5,1442.0 L 1242.5,1345.0 L 1199.5,1320.0 L 1244.0,1343.5 L 1328.5,1294.0 L 1328.5,1197.0 L 1285.5,1172.0 L 1330.0,1195.5 L 1414.5,1146.0 L 1414.5,1049.0 L 1371.5,1024.0 L 1416.0,1047.5 L 1500.5,998.0 L 1500.5,901.0 L 1457.5,876.0 L 1502.0,899.5 L 1586.5,850.0 L 1586.5,753.0 L 1543.5,728.0 L 1588.0,751.5 L 1672.5,702.0 L 1672.5,605.0 L 1629.5,580.0 L 1674.0,603.5 L 1758.5,554.0 L 1758.5,457.0 L 1715.5,432.0 L 1760.0,455.5 L 1844.5,406.0 L 1844.5,309.0 L 1801.5,284.0 L 1846.0,307.5 L 1930.5,258.0 L 1930.5,161.0 L 1845.0,111.5 L 1758.5,161.0 L 1758.5,258.0 L 1801.5,283.0 L 1757.0,259.5 L 1672.5,309.0 L 1672.5,406.0 L 1715.5,431.0 L 1671.0,407.5 L 1586.5,457.0 L 1586.5,554.0 L 1629.5,579.0 L 1585.0,555.5 L 1500.5,605.0 L 1500.5,702.0 L 1543.5,727.0 L 1499.0,703.5 L 1414.5,753.0 L 1414.5,850.0 L 1457.5,875.0 L 1413.0,851.5 L 1328.5,901.0 L 1328.5,998.0 L 1371.5,1023.0 L 1327.0,999.5 L 1242.5,1049.0 L 1242.5,1146.0 L 1285.5,1171.0 L 1241.0,1147.5 L 1156.5,1197.0 L 1156.5,1294.0 L 1199.5,1319.0 L 1155.0,1295.5 L 1070.5,1345.0 L 1070.5,1442.0 L 1113.5,1467.0 L 1069.0,1443.5 L 984.5,1493.0 L 984.5,1590.0 L 1027.5,1615.0 L 983.0,1591.5 L 898.5,1641.0 L 898.5,1738.0 L 941.5,1763.0 L 897.0,1739.5 L 812.5,1789.0 L 812.5,1886.0 L 900.5,1935.0 Z"
     fill="#f2a65e"
     stroke="none"
     id="path342" />
  <path
     d="M 1073.5,1935.0 L 1157.5,1886.0 L 1157.5,1789.0 L 1114.5,1764.0 L 1159.0,1787.5 L 1243.5,1738.0 L 1243.5,1641.0 L 1200.5,1616.0 L 1245.0,1639.5 L 1329.5,1590.0 L 1329.5,1493.0 L 1286.5,1468.0 L 1331.0,1491.5 L 1415.5,1442.0 L 1415.5,1345.0 L 1372.5,1320.0 L 1417.0,1343.5 L 1501.5,1294.0 L 1501.5,1197.0 L 1458.5,1172.0 L 1503.0,1195.5 L 1587.5,1146.0 L 1587.5,1049.0 L 1544.5,1024.0 L 1589.0,1047.5 L 1673.5,998.0 L 1673.5,901.0 L 1630.5,876.0 L 1675.0,899.5 L 1759.5,850.0 L 1759.5,753.0 L 1716.5,728.0 L 1761.0,751.5 L 1845.5,702.0 L 1845.5,605.0 L 1802.5,580.0 L 1847.0,603.5 L 1931.5,554.0 L 1931.5,457.0 L 1888.5,432.0 L 1933.0,455.5 L 2017.5,406.0 L 2017.5,309.0 L 1932.0,259.5 L 1845.5,309.0 L 1845.5,406.0 L 1888.5,431.0 L 1844.0,407.5 L 1759.5,457.0 L 1759.5,554.0 L 1802.5,579.0 L 1758.0,555.5 L 1673.5,605.0 L 1673.5,702.0 L 1716.5,727.0 L 1672.0,703.5 L 1587.5,753.0 L 1587.5,850.0 L 1630.5,875.0 L 1586.0,851.5 L 1501.5,901.0 L 1501.5,998.0 L 1544.5,1023.0 L 1500.0,999.5 L 1415.5,1049.0 L 1415.5,1146.0 L 1458.5,1171.0 L 1414.0,1147.5 L 1329.5,1197.0 L 1329.5,1294.0 L 1372.5,1319.0 L 1328.0,1295.5 L 1243.5,1345.0 L 1243.5,1442.0 L 1286.5,1467.0 L 1242.0,1443.5 L 1157.5,1493.0 L 1157.5,1590.0 L 1200.5,1615.0 L 1156.0,1591.5 L 1071.5,1641.0 L 1071.5,1738.0 L 1114.5,1763.0 L 1070.0,1739.5 L 985.5,1789.0 L 985.5,1886.0 L 1073.5,1935.0 Z"
     fill="#f2a65e"
     stroke="none"
     id="path343" />
  <path
     d="M 1246.5,1935.0 L 1330.5,1886.0 L 1330.5,1789.0 L 1287.5,1764.0 L 1332.0,1787.5 L 1416.5,1738.0 L 1416.5,1641.0 L 1373.5,1616.0 L 1418.0,1639.5 L 1502.5,1590.0 L 1502.5,1493.0 L 1459.5,1468.0 L 1504.0,1491.5 L 1588.5,1442.0 L 1588.5,1345.0 L 1545.5,1320.0 L 1590.0,1343.5 L 1674.5,1294.0 L 1674.5,1197.0 L 1631.5,1172.0 L 1676.0,1195.5 L 1760.5,1146.0 L 1760.5,1049.0 L 1717.5,1024.0 L 1762.0,1047.5 L 1846.5,998.0 L 1846.5,901.0 L 1803.5,876.0 L 1848.0,899.5 L 1932.5,850.0 L 1932.5,753.0 L 1889.5,728.0 L 1934.0,751.5 L 2018.5,702.0 L 2018.5,605.0 L 1933.0,555.5 L 1846.5,605.0 L 1846.5,702.0 L 1889.5,727.0 L 1845.0,703.5 L 1760.5,753.0 L 1760.5,850.0 L 1803.5,875.0 L 1759.0,851.5 L 1674.5,901.0 L 1674.5,998.0 L 1717.5,1023.0 L 1673.0,999.5 L 1588.5,1049.0 L 1588.5,1146.0 L 1631.5,1171.0 L 1587.0,1147.5 L 1502.5,1197.0 L 1502.5,1294.0 L 1545.5,1319.0 L 1501.0,1295.5 L 1416.5,1345.0 L 1416.5,1442.0 L 1459.5,1467.0 L 1415.0,1443.5 L 1330.5,1493.0 L 1330.5,1590.0 L 1373.5,1615.0 L 1329.0,1591.5 L 1244.5,1641.0 L 1244.5,1738.0 L 1287.5,1763.0 L 1243.0,1739.5 L 1158.5,1789.0 L 1158.5,1886.0 L 1246.5,1935.0 Z"
     fill="#f2a65e"
     stroke="none"
     id="path344" />
  <path
     d="M 1419.5,1935.0 L 1503.5,1886.0 L 1503.5,1789.0 L 1460.5,1764.0 L 1505.0,1787.5 L 1589.5,1738.0 L 1589.5,1641.0 L 1546.5,1616.0 L 1591.0,1639.5 L 1675.5,1590.0 L 1675.5,1493.0 L 1632.5,1468.0 L 1677.0,1491.5 L 1761.5,1442.0 L 1761.5,1345.0 L 1718.5,1320.0 L 1763.0,1343.5 L 1847.5,1294.0 L 1847.5,1197.0 L 1804.5,1172.0 L 1849.0,1195.5 L 1933.5,1146.0 L 1933.5,1049.0 L 1890.5,1024.0 L 1935.0,1047.5 L 2019.5,998.0 L 2019.5,901.0 L 1934.0,851.5 L 1847.5,901.0 L 1847.5,998.0 L 1890.5,1023.0 L 1846.0,999.5 L 1761.5,1049.0 L 1761.5,1146.0 L 1804.5,1171.0 L 1760.0,1147.5 L 1675.5,1197.0 L 1675.5,1294.0 L 1718.5,1319.0 L 1674.0,1295.5 L 1589.5,1345.0 L 1589.5,1442.0 L 1632.5,1467.0 L 1588.0,1443.5 L 1503.5,1493.0 L 1503.5,1590.0 L 1546.5,1615.0 L 1502.0,1591.5 L 1417.5,1641.0 L 1417.5,1738.0 L 1460.5,1763.0 L 1416.0,1739.5 L 1331.5,1789.0 L 1331.5,1886.0 L 1419.5,1935.0 Z"
     fill="#f2a65e"
     stroke="none"
     id="path345" />
  <path
     d="M 1592.5,1935.0 L 1676.5,1886.0 L 1676.5,1789.0 L 1633.5,1764.0 L 1678.0,1787.5 L 1762.5,1738.0 L 1762.5,1641.0 L 1719.5,1616.0 L 1764.0,1639.5 L 1848.5,1590.0 L 1848.5,1493.0 L 1805.5,1468.0 L 1850.0,1491.5 L 1934.5,1442.0 L 1934.5,1345.0 L 1891.5,1320.0 L 1936.0,1343.5 L 2020.5,1294.0 L 2020.5,1197.0 L 1935.0,1147.5 L 1848.5,1197.0 L 1848.5,1294.0 L 1891.5,1319.0 L 1847.0,1295.5 L 1762.5,1345.0 L 1762.5,1442.0 L 1805.5,1467.0 L 1761.0,1443.5 L 1676.5,1493.0 L 1676.5,1590.0 L 1719.5,1615.0 L 1675.0,1591.5 L 1590.5,1641.0 L 1590.5,1738.0 L 1633.5,1763.0 L 1589.0,1739.5 L 1504.5,1789.0 L 1504.5,1886.0 L 1592.5,1935.0 Z"
     fill="#f2a65e"
     stroke="none"
     id="path346" />
  <path
     d="M 1765.5,1935.0 L 1849.5,1886.0 L 1849.5,1789.0 L 1806.5,1764.0 L 1851.0,1787.5 L 1935.5,1738.0 L 1935.5,1641.0 L 1892.5,1616.0 L 1937.0,1639.5 L 2021.5,1590.0 L 2021.5,1493.0 L 1936.0,1443.5 L 1849.5,1493.0 L 1849.5,1590.0 L 1892.5,1615.0 L 1848.0,1591.5 L 1763.5,1641.0 L 1763.5,1738.0 L 1806.5,1763.0 L 1762.0,1739.5 L 1677.5,1789.0 L 1677.5,1886.0 L 1765.5,1935.0 Z"
     fill="#f2a65e"
     stroke="none"
     id="path347" />
  <path
     d="M 1938.5,1935.0 L 2022.5,1886.0 L 2022.5,1789.0 L 1935.0,1739.5 L 1850.5,1789.0 L 1850.5,1886.0 L 1938.5,1935.0 Z"
     fill="#f2a65e"
     stroke="none"
     id="path348" />
  <path
     d="M 289.0,306.5 L 202.5,257.0 L 202.5,162.0 L 286.0,112.5 L 372.5,162.0 L 372.5,257.0 L 289.0,306.5 Z"
     fill="#ffffff"
     stroke="none"
     id="path349"
     style="stroke:#7b7b7b;stroke-opacity:1" />
  <path
     d="M 116,306.5 29.5,257 V 162 L 113,112.5 199.5,162 v 95 z"
     fill="#ffffff"
     stroke="none"
     id="path349-1"
     style="fill:#000000;stroke:#7b7b7b;stroke-opacity:1" />
  <path
     d="M 462,306.5 375.5,257 V 162 L 459,112.5 545.5,162 v 95 z"
     fill="#ffffff"
     stroke="none"
     id="path349-8"
     style="fill:#000000;stroke:#7b7b7b;stroke-opacity:1" />
  <path
     d="M 635.0,306.5 L 548.5,257.0 L 548.5,162.0 L 632.0,112.5 L 718.5,162.0 L 718.5,257.0 L 635.0,306.5 Z"
     fill="#ffffff"
     stroke="none"
     id="path350"
     style="stroke:#7b7b7b;stroke-opacity:1" />
  <path
     d="M 808,306.5 721.5,257 V 162 L 805,112.5 891.5,162 v 95 z"
     fill="#ffffff"
     stroke="none"
     id="path350-5"
     style="fill:#000000;stroke:#7b7b7b;stroke-opacity:1" />
  <path
     d="M 981.0,306.5 L 894.5,257.0 L 894.5,162.0 L 978.0,112.5 L 1064.5,162.0 L 1064.5,257.0 L 981.0,306.5 Z"
     fill="#ffffff"
     stroke="none"
     id="path351"
     style="stroke:#7b7b7b;stroke-opacity:1" />
  <path
     d="M 1327.0,306.5 L 1240.5,257.0 L 1240.5,162.0 L 1324.0,112.5 L 1410.5,162.0 L 1410.5,257.0 L 1327.0,306.5 Z"
     fill="#ffffff"
     stroke="none"
     id="path352"
     style="stroke:#7b7b7b;stroke-opacity:1" />
  <path
     d="M 1500,306.5 1413.5,257 v -95 l 83.5,-49.5 86.5,49.5 v 95 z"
     fill="#ffffff"
     stroke="none"
     id="path352-1"
     style="fill:#000000;stroke:#7b7b7b;stroke-opacity:1" />
  <path
     d="M 1673.0,306.5 L 1586.5,257.0 L 1586.5,162.0 L 1670.0,112.5 L 1756.5,162.0 L 1756.5,257.0 L 1673.0,306.5 Z"
     fill="#ffffff"
     stroke="none"
     id="path353"
     style="stroke:#7b7b7b;stroke-opacity:1" />
  <path
     d="M 1846,306.5 1759.5,257 v -95 l 83.5,-49.5 86.5,49.5 v 95 z"
     fill="#ffffff"
     stroke="none"
     id="path353-5"
     style="fill:#000000;stroke:#7b7b7b;stroke-opacity:1" />
  <path
     d="M 1241,454.5 1154.5,405 v -95 l 83.5,-49.5 86.5,49.5 v 95 z"
     fill="#ffffff"
     stroke="none"
     id="path351-1-9"
     style="fill:#ffffff;stroke:#7b7b7b;stroke-opacity:1" />
  <path
     d="M 376,454.5 289.5,405 V 310 L 373,260.5 459.5,310 v 95 z"
     fill="#ffffff"
     stroke="none"
     id="path349-2"
     style="fill:#000000;stroke:#7b7b7b;stroke-opacity:1" />
  <path
     d="M 203,454.5 116.5,405 V 310 L 200,260.5 286.5,310 v 95 z"
     fill="#ffffff"
     stroke="none"
     id="path349-1-7"
     style="fill:#ffffff;stroke:#7b7b7b;stroke-opacity:1" />
  <path
     d="M 549,454.5 462.5,405 V 310 L 546,260.5 632.5,310 v 95 z"
     fill="#ffffff"
     stroke="none"
     id="path349-8-9"
     style="fill:#ffffff;stroke:#7b7b7b;stroke-opacity:1" />
  <path
     d="M 722,454.5 635.5,405 V 310 L 719,260.5 805.5,310 v 95 z"
     fill="#ffffff"
     stroke="none"
     id="path350-54"
     style="fill:#000000;stroke:#7b7b7b;stroke-opacity:1" />
  <path
     d="M 895,454.5 808.5,405 V 310 L 892,260.5 978.5,310 v 95 z"
     fill="#ffffff"
     stroke="none"
     id="path350-5-3"
     style="fill:#ffffff;stroke:#7b7b7b;stroke-opacity:1" />
  <path
     d="M 1068,454.5 981.5,405 v -95 l 83.5,-49.5 86.5,49.5 v 95 z"
     fill="#ffffff"
     stroke="none"
     id="path351-12"
     style="fill:#000000;stroke:#7b7b7b;stroke-opacity:1" />
  <path
     d="M 1414,454.5 1327.5,405 v -95 l 83.5,-49.5 86.5,49.5 v 95 z"
     fill="#ffffff"
     stroke="none"
     id="path352-3"
     style="fill:#000000;stroke:#7b7b7b;stroke-opacity:1" />
  <path
     d="M 1587,454.5 1500.5,405 v -95 l 83.5,-49.5 86.5,49.5 v 95 z"
     fill="#ffffff"
     stroke="none"
     id="path352-1-3"
     style="fill:#ffffff;stroke:#7b7b7b;stroke-opacity:1" />
  <path
     d="M 1760,454.5 1673.5,405 v -95 l 83.5,-49.5 86.5,49.5 v 95 z"
     fill="#ffffff"
     stroke="none"
     id="path353-4"
     style="fill:#000000;stroke:#7b7b7b;stroke-opacity:1" />
  <path
     d="M 1933,454.5 1846.5,405 v -95 l 83.5,-49.5 86.5,49.5 v 95 z"
     fill="#ffffff"
     stroke="none"
     id="path353-5-1"
     style="fill:#ffffff;stroke:#7b7b7b;stroke-opacity:1" />
  <path
     d="m 1158,1490.5 -86.5,-49.5 v -95 l 83.5,-49.5 86.5,49.5 v 95 z"
     fill="#ffffff"
     stroke="none"
     id="path351-1-3"
     style="fill:#000000;stroke:#7b7b7b;stroke-opacity:1" />
  <path
     d="M 293,1490.5 206.5,1441 v -95 l 83.5,-49.5 86.5,49.5 v 95 z"
     fill="#ffffff"
     stroke="none"
     id="path349-5"
     style="stroke:#7b7b7b;stroke-opacity:1" />
  <path
     d="M 120,1490.5 33.5,1441 v -95 l 83.5,-49.5 86.5,49.5 v 95 z"
     fill="#ffffff"
     stroke="none"
     id="path349-1-99"
     style="fill:#000000;stroke:#7b7b7b;stroke-opacity:1" />
  <path
     d="M 466,1490.5 379.5,1441 v -95 l 83.5,-49.5 86.5,49.5 v 95 z"
     fill="#ffffff"
     stroke="none"
     id="path349-8-8"
     style="fill:#000000;stroke:#7b7b7b;stroke-opacity:1" />
  <path
     d="M 639,1490.5 552.5,1441 v -95 l 83.5,-49.5 86.5,49.5 v 95 z"
     fill="#ffffff"
     stroke="none"
     id="path350-1"
     style="stroke:#7b7b7b;stroke-opacity:1" />
  <path
     d="M 812,1490.5 725.5,1441 v -95 l 83.5,-49.5 86.5,49.5 v 95 z"
     fill="#ffffff"
     stroke="none"
     id="path350-5-8"
     style="fill:#000000;stroke:#7b7b7b;stroke-opacity:1" />
  <path
     d="M 985,1490.5 898.5,1441 v -95 l 83.5,-49.5 86.5,49.5 v 95 z"
     fill="#ffffff"
     stroke="none"
     id="path351-2"
     style="stroke:#7b7b7b;stroke-opacity:1" />
  <path
     d="m 1331,1490.5 -86.5,-49.5 v -95 l 83.5,-49.5 86.5,49.5 v 95 z"
     fill="#ffffff"
     stroke="none"
     id="path352-6"
     style="stroke:#7b7b7b;stroke-opacity:1" />
  <path
     d="m 1504,1490.5 -86.5,-49.5 v -95 l 83.5,-49.5 86.5,49.5 v 95 z"
     fill="#ffffff"
     stroke="none"
     id="path352-1-6"
     style="fill:#000000;stroke:#7b7b7b;stroke-opacity:1" />
  <path
     d="m 1677,1490.5 -86.5,-49.5 v -95 l 83.5,-49.5 86.5,49.5 v 95 z"
     fill="#ffffff"
     stroke="none"
     id="path353-03"
     style="stroke:#7b7b7b;stroke-opacity:1" />
  <path
     d="m 1850,1490.5 -86.5,-49.5 v -95 l 83.5,-49.5 86.5,49.5 v 95 z"
     fill="#ffffff"
     stroke="none"
     id="path353-5-8"
     style="fill:#000000;stroke:#7b7b7b;stroke-opacity:1" />
  <path
     d="m 1245,1638.5 -86.5,-49.5 v -95 l 83.5,-49.5 86.5,49.5 v 95 z"
     fill="#ffffff"
     stroke="none"
     id="path351-1-9-0"
     style="fill:#ffffff;stroke:#7b7b7b;stroke-opacity:1" />
  <path
     d="M 380,1638.5 293.5,1589 v -95 l 83.5,-49.5 86.5,49.5 v 95 z"
     fill="#ffffff"
     stroke="none"
     id="path349-2-1"
     style="fill:#000000;stroke:#7b7b7b;stroke-opacity:1" />
  <path
     d="M 207,1638.5 120.5,1589 v -95 l 83.5,-49.5 86.5,49.5 v 95 z"
     fill="#ffffff"
     stroke="none"
     id="path349-1-7-2"
     style="fill:#ffffff;stroke:#7b7b7b;stroke-opacity:1" />
  <path
     d="M 553,1638.5 466.5,1589 v -95 l 83.5,-49.5 86.5,49.5 v 95 z"
     fill="#ffffff"
     stroke="none"
     id="path349-8-9-5"
     style="fill:#ffffff;stroke:#7b7b7b;stroke-opacity:1" />
  <path
     d="M 726,1638.5 639.5,1589 v -95 l 83.5,-49.5 86.5,49.5 v 95 z"
     fill="#ffffff"
     stroke="none"
     id="path350-54-0"
     style="fill:#000000;stroke:#7b7b7b;stroke-opacity:1" />
  <path
     d="M 899,1638.5 812.5,1589 v -95 l 83.5,-49.5 86.5,49.5 v 95 z"
     fill="#ffffff"
     stroke="none"
     id="path350-5-3-9"
     style="fill:#ffffff;stroke:#7b7b7b;stroke-opacity:1" />
  <path
     d="M 1072,1638.5 985.5,1589 v -95 l 83.5,-49.5 86.5,49.5 v 95 z"
     fill="#ffffff"
     stroke="none"
     id="path351-12-4"
     style="fill:#000000;stroke:#7b7b7b;stroke-opacity:1" />
  <path
     d="m 1418,1638.5 -86.5,-49.5 v -95 l 83.5,-49.5 86.5,49.5 v 95 z"
     fill="#ffffff"
     stroke="none"
     id="path352-3-7"
     style="fill:#000000;stroke:#7b7b7b;stroke-opacity:1" />
  <path
     d="m 1591,1638.5 -86.5,-49.5 v -95 l 83.5,-49.5 86.5,49.5 v 95 z"
     fill="#ffffff"
     stroke="none"
     id="path352-1-3-8"
     style="fill:#ffffff;stroke:#7b7b7b;stroke-opacity:1" />
  <path
     d="m 1764,1638.5 -86.5,-49.5 v -95 l 83.5,-49.5 86.5,49.5 v 95 z"
     fill="#ffffff"
     stroke="none"
     id="path353-4-3"
     style="fill:#000000;stroke:#7b7b7b;stroke-opacity:1" />
  <path
     d="m 1937,1638.5 -86.5,-49.5 v -95 l 83.5,-49.5 86.5,49.5 v 95 z"
     fill="#ffffff"
     stroke="none"
     id="path353-5-1-5"
     style="fill:#ffffff;stroke:#7b7b7b;stroke-opacity:1" />
  <path
     d="M 1156,898.5 1069.5,849 v -95 l 83.5,-49.5 86.5,49.5 v 95 z"
     fill="#ffffff"
     stroke="none"
     id="path351-1-8"
     style="fill:#000000;stroke:#7b7b7b;stroke-opacity:1" />
  <path
     d="M 291,898.5 204.5,849 V 754 L 288,704.5 374.5,754 v 95 z"
     fill="#ffffff"
     stroke="none"
     id="path349-82"
     style="stroke:#7b7b7b;stroke-opacity:1" />
  <path
     d="M 118,898.5 31.5,849 V 754 L 115,704.5 201.5,754 v 95 z"
     fill="#ffffff"
     stroke="none"
     id="path349-1-9"
     style="fill:#000000;stroke:#7b7b7b;stroke-opacity:1" />
  <path
     d="M 464,898.5 377.5,849 V 754 L 461,704.5 547.5,754 v 95 z"
     fill="#ffffff"
     stroke="none"
     id="path349-8-1"
     style="fill:#000000;stroke:#7b7b7b;stroke-opacity:1" />
  <path
     d="M 637,898.5 550.5,849 V 754 L 634,704.5 720.5,754 v 95 z"
     fill="#ffffff"
     stroke="none"
     id="path350-3"
     style="stroke:#7b7b7b;stroke-opacity:1" />
  <path
     d="M 810,898.5 723.5,849 V 754 L 807,704.5 893.5,754 v 95 z"
     fill="#ffffff"
     stroke="none"
     id="path350-5-5"
     style="fill:#000000;stroke:#7b7b7b;stroke-opacity:1" />
  <path
     d="M 983,898.5 896.5,849 v -95 l 83.5,-49.5 86.5,49.5 v 95 z"
     fill="#ffffff"
     stroke="none"
     id="path351-9"
     style="stroke:#7b7b7b;stroke-opacity:1" />
  <path
     d="M 1329,898.5 1242.5,849 v -95 l 83.5,-49.5 86.5,49.5 v 95 z"
     fill="#ffffff"
     stroke="none"
     id="path352-8"
     style="stroke:#7b7b7b;stroke-opacity:1" />
  <path
     d="M 1502,898.5 1415.5,849 v -95 l 83.5,-49.5 86.5,49.5 v 95 z"
     fill="#ffffff"
     stroke="none"
     id="path352-1-4"
     style="fill:#000000;stroke:#7b7b7b;stroke-opacity:1" />
  <path
     d="M 1675,898.5 1588.5,849 v -95 l 83.5,-49.5 86.5,49.5 v 95 z"
     fill="#ffffff"
     stroke="none"
     id="path353-0"
     style="stroke:#7b7b7b;stroke-opacity:1" />
  <path
     d="M 1848,898.5 1761.5,849 v -95 l 83.5,-49.5 86.5,49.5 v 95 z"
     fill="#ffffff"
     stroke="none"
     id="path353-5-7"
     style="fill:#000000;stroke:#7b7b7b;stroke-opacity:1" />
  <path
     d="M 1243,1046.5 1156.5,997 v -95 l 83.5,-49.5 86.5,49.5 v 95 z"
     fill="#ffffff"
     stroke="none"
     id="path351-1-9-6"
     style="fill:#ffffff;stroke:#7b7b7b;stroke-opacity:1" />
  <path
     d="M 378,1046.5 291.5,997 V 902 L 375,852.5 461.5,902 v 95 z"
     fill="#ffffff"
     stroke="none"
     id="path349-2-3"
     style="fill:#000000;stroke:#7b7b7b;stroke-opacity:1" />
  <path
     d="M 205,1046.5 118.5,997 V 902 L 202,852.5 288.5,902 v 95 z"
     fill="#ffffff"
     stroke="none"
     id="path349-1-7-6"
     style="fill:#ffffff;stroke:#7b7b7b;stroke-opacity:1" />
  <path
     d="M 551,1046.5 464.5,997 V 902 L 548,852.5 634.5,902 v 95 z"
     fill="#ffffff"
     stroke="none"
     id="path349-8-9-1"
     style="fill:#ffffff;stroke:#7b7b7b;stroke-opacity:1" />
  <path
     d="M 724,1046.5 637.5,997 V 902 L 721,852.5 807.5,902 v 95 z"
     fill="#ffffff"
     stroke="none"
     id="path350-54-5"
     style="fill:#000000;stroke:#7b7b7b;stroke-opacity:1" />
  <path
     d="M 897,1046.5 810.5,997 V 902 L 894,852.5 980.5,902 v 95 z"
     fill="#ffffff"
     stroke="none"
     id="path350-5-3-4"
     style="fill:#ffffff;stroke:#7b7b7b;stroke-opacity:1" />
  <path
     d="M 1070,1046.5 983.5,997 v -95 l 83.5,-49.5 86.5,49.5 v 95 z"
     fill="#ffffff"
     stroke="none"
     id="path351-12-2"
     style="fill:#000000;stroke:#7b7b7b;stroke-opacity:1" />
  <path
     d="M 1416,1046.5 1329.5,997 v -95 l 83.5,-49.5 86.5,49.5 v 95 z"
     fill="#ffffff"
     stroke="none"
     id="path352-3-0"
     style="fill:#000000;stroke:#7b7b7b;stroke-opacity:1" />
  <path
     d="M 1589,1046.5 1502.5,997 v -95 l 83.5,-49.5 86.5,49.5 v 95 z"
     fill="#ffffff"
     stroke="none"
     id="path352-1-3-9"
     style="fill:#ffffff;stroke:#7b7b7b;stroke-opacity:1" />
  <path
     d="M 1762,1046.5 1675.5,997 v -95 l 83.5,-49.5 86.5,49.5 v 95 z"
     fill="#ffffff"
     stroke="none"
     id="path353-4-7"
     style="fill:#000000;stroke:#7b7b7b;stroke-opacity:1" />
  <path
     d="M 1935,1046.5 1848.5,997 v -95 l 83.5,-49.5 86.5,49.5 v 95 z"
     fill="#ffffff"
     stroke="none"
     id="path353-5-1-3"
     style="fill:#ffffff;stroke:#7b7b7b;stroke-opacity:1" />
  <path
     d="M 1155,602.5 1068.5,553 v -95 l 83.5,-49.5 86.5,49.5 v 95 z"
     fill="#ffffff"
     stroke="none"
     id="path351-1-9-3"
     style="fill:#ffffff;stroke:#7b7b7b;stroke-opacity:1" />
  <path
     d="M 290,602.5 203.5,553 V 458 L 287,408.5 373.5,458 v 95 z"
     fill="#ffffff"
     stroke="none"
     id="path349-2-8"
     style="fill:#000000;stroke:#7b7b7b;stroke-opacity:1" />
  <path
     d="M 117,602.5 30.5,553 V 458 L 114,408.5 200.5,458 v 95 z"
     fill="#ffffff"
     stroke="none"
     id="path349-1-7-7"
     style="fill:#ffffff;stroke:#7b7b7b;stroke-opacity:1" />
  <path
     d="M 463,602.5 376.5,553 V 458 L 460,408.5 546.5,458 v 95 z"
     fill="#ffffff"
     stroke="none"
     id="path349-8-9-4"
     style="fill:#ffffff;stroke:#7b7b7b;stroke-opacity:1" />
  <path
     d="M 636,602.5 549.5,553 V 458 L 633,408.5 719.5,458 v 95 z"
     fill="#ffffff"
     stroke="none"
     id="path350-54-2"
     style="fill:#000000;stroke:#7b7b7b;stroke-opacity:1" />
  <path
     d="M 809,602.5 722.5,553 V 458 L 806,408.5 892.5,458 v 95 z"
     fill="#ffffff"
     stroke="none"
     id="path350-5-3-7"
     style="fill:#ffffff;stroke:#7b7b7b;stroke-opacity:1" />
  <path
     d="M 982,602.5 895.5,553 v -95 l 83.5,-49.5 86.5,49.5 v 95 z"
     fill="#ffffff"
     stroke="none"
     id="path351-12-7"
     style="fill:#000000;stroke:#7b7b7b;stroke-opacity:1" />
  <path
     d="M 1328,602.5 1241.5,553 v -95 l 83.5,-49.5 86.5,49.5 v 95 z"
     fill="#ffffff"
     stroke="none"
     id="path352-3-9"
     style="fill:#000000;stroke:#7b7b7b;stroke-opacity:1" />
  <path
     d="M 1501,602.5 1414.5,553 v -95 l 83.5,-49.5 86.5,49.5 v 95 z"
     fill="#ffffff"
     stroke="none"
     id="path352-1-3-3"
     style="fill:#ffffff;stroke:#7b7b7b;stroke-opacity:1" />
  <path
     d="M 1674,602.5 1587.5,553 v -95 l 83.5,-49.5 86.5,49.5 v 95 z"
     fill="#ffffff"
     stroke="none"
     id="path353-4-1"
     style="fill:#000000;stroke:#7b7b7b;stroke-opacity:1" />
  <path
     d="M 1847,602.5 1760.5,553 v -95 l 83.5,-49.5 86.5,49.5 v 95 z"
     fill="#ffffff"
     stroke="none"
     id="path353-5-1-9"
     style="fill:#ffffff;stroke:#7b7b7b;stroke-opacity:1" />
  <path
     d="M 1242,750.5 1155.5,701 v -95 l 83.5,-49.5 86.5,49.5 v 95 z"
     fill="#ffffff"
     stroke="none"
     id="path351-1-9-3-6"
     style="fill:#000000;stroke:#7b7b7b;stroke-opacity:1" />
  <path
     d="M 377,750.5 290.5,701 V 606 L 374,556.5 460.5,606 v 95 z"
     fill="#ffffff"
     stroke="none"
     id="path349-2-8-5"
     style="fill:#ffffff;stroke:#7b7b7b;stroke-opacity:1" />
  <path
     d="M 204,750.5 117.5,701 V 606 L 201,556.5 287.5,606 v 95 z"
     fill="#ffffff"
     stroke="none"
     id="path349-1-7-7-0"
     style="fill:#000000;stroke:#7b7b7b;stroke-opacity:1" />
  <path
     d="M 550,750.5 463.5,701 V 606 L 547,556.5 633.5,606 v 95 z"
     fill="#ffffff"
     stroke="none"
     id="path349-8-9-4-2"
     style="fill:#000000;stroke:#7b7b7b;stroke-opacity:1" />
  <path
     d="M 723,750.5 636.5,701 V 606 L 720,556.5 806.5,606 v 95 z"
     fill="#ffffff"
     stroke="none"
     id="path350-54-2-8"
     style="fill:#ffffff;stroke:#7b7b7b;stroke-opacity:1" />
  <path
     d="M 896,750.5 809.5,701 V 606 L 893,556.5 979.5,606 v 95 z"
     fill="#ffffff"
     stroke="none"
     id="path350-5-3-7-6"
     style="fill:#000000;stroke:#7b7b7b;stroke-opacity:1" />
  <path
     d="M 1069,750.5 982.5,701 v -95 l 83.5,-49.5 86.5,49.5 v 95 z"
     fill="#ffffff"
     stroke="none"
     id="path351-12-7-0"
     style="fill:#ffffff;stroke:#7b7b7b;stroke-opacity:1" />
  <path
     d="M 1415,750.5 1328.5,701 v -95 l 83.5,-49.5 86.5,49.5 v 95 z"
     fill="#ffffff"
     stroke="none"
     id="path352-3-9-2"
     style="fill:#ffffff;stroke:#7b7b7b;stroke-opacity:1" />
  <path
     d="M 1588,750.5 1501.5,701 v -95 l 83.5,-49.5 86.5,49.5 v 95 z"
     fill="#ffffff"
     stroke="none"
     id="path352-1-3-3-4"
     style="fill:#000000;stroke:#7b7b7b;stroke-opacity:1" />
  <path
     d="M 1761,750.5 1674.5,701 v -95 l 83.5,-49.5 86.5,49.5 v 95 z"
     fill="#ffffff"
     stroke="none"
     id="path353-4-1-8"
     style="fill:#ffffff;stroke:#7b7b7b;stroke-opacity:1" />
  <path
     d="M 1934,750.5 1847.5,701 v -95 l 83.5,-49.5 86.5,49.5 v 95 z"
     fill="#ffffff"
     stroke="none"
     id="path353-5-1-9-6"
     style="fill:#ffffff;stroke:#7b7b7b;stroke-opacity:1" />
  <path
     d="m 1159,1786.5 -86.5,-49.5 v -95 l 83.5,-49.5 86.5,49.5 v 95 z"
     fill="#ffffff"
     stroke="none"
     id="path351-1-9-3-20"
     style="fill:#ffffff;stroke:#7b7b7b;stroke-opacity:1" />
  <path
     d="M 294,1786.5 207.5,1737 v -95 l 83.5,-49.5 86.5,49.5 v 95 z"
     fill="#ffffff"
     stroke="none"
     id="path349-2-8-1"
     style="fill:#000000;stroke:#7b7b7b;stroke-opacity:1" />
  <path
     d="M 121,1786.5 34.5,1737 v -95 l 83.5,-49.5 86.5,49.5 v 95 z"
     fill="#ffffff"
     stroke="none"
     id="path349-1-7-7-6"
     style="fill:#ffffff;stroke:#7b7b7b;stroke-opacity:1" />
  <path
     d="M 467,1786.5 380.5,1737 v -95 l 83.5,-49.5 86.5,49.5 v 95 z"
     fill="#ffffff"
     stroke="none"
     id="path349-8-9-4-4"
     style="fill:#ffffff;stroke:#7b7b7b;stroke-opacity:1" />
  <path
     d="M 640,1786.5 553.5,1737 v -95 l 83.5,-49.5 86.5,49.5 v 95 z"
     fill="#ffffff"
     stroke="none"
     id="path350-54-2-0"
     style="fill:#000000;stroke:#7b7b7b;stroke-opacity:1" />
  <path
     d="M 813,1786.5 726.5,1737 v -95 l 83.5,-49.5 86.5,49.5 v 95 z"
     fill="#ffffff"
     stroke="none"
     id="path350-5-3-7-61"
     style="fill:#ffffff;stroke:#7b7b7b;stroke-opacity:1" />
  <path
     d="M 986,1786.5 899.5,1737 v -95 l 83.5,-49.5 86.5,49.5 v 95 z"
     fill="#ffffff"
     stroke="none"
     id="path351-12-7-8"
     style="fill:#000000;stroke:#7b7b7b;stroke-opacity:1" />
  <path
     d="m 1332,1786.5 -86.5,-49.5 v -95 l 83.5,-49.5 86.5,49.5 v 95 z"
     fill="#ffffff"
     stroke="none"
     id="path352-3-9-9"
     style="fill:#000000;stroke:#7b7b7b;stroke-opacity:1" />
  <path
     d="m 1505,1786.5 -86.5,-49.5 v -95 l 83.5,-49.5 86.5,49.5 v 95 z"
     fill="#ffffff"
     stroke="none"
     id="path352-1-3-3-8"
     style="fill:#ffffff;stroke:#7b7b7b;stroke-opacity:1" />
  <path
     d="m 1678,1786.5 -86.5,-49.5 v -95 l 83.5,-49.5 86.5,49.5 v 95 z"
     fill="#ffffff"
     stroke="none"
     id="path353-4-1-4"
     style="fill:#000000;stroke:#7b7b7b;stroke-opacity:1" />
  <path
     d="m 1851,1786.5 -86.5,-49.5 v -95 l 83.5,-49.5 86.5,49.5 v 95 z"
     fill="#ffffff"
     stroke="none"
     id="path353-5-1-9-1"
     style="fill:#ffffff;stroke:#7b7b7b;stroke-opacity:1" />
  <path
     d="m 1246,1934.5 -86.5,-49.5 v -95 l 83.5,-49.5 86.5,49.5 v 95 z"
     fill="#ffffff"
     stroke="none"
     id="path351-1-9-3-6-4"
     style="fill:#000000;stroke:#7b7b7b;stroke-opacity:1" />
  <path
     d="M 381,1934.5 294.5,1885 v -95 l 83.5,-49.5 86.5,49.5 v 95 z"
     fill="#ffffff"
     stroke="none"
     id="path349-2-8-5-3"
     style="fill:#ffffff;stroke:#7b7b7b;stroke-opacity:1" />
  <path
     d="M 208,1934.5 121.5,1885 v -95 l 83.5,-49.5 86.5,49.5 v 95 z"
     fill="#ffffff"
     stroke="none"
     id="path349-1-7-7-0-9"
     style="fill:#000000;stroke:#7b7b7b;stroke-opacity:1" />
  <path
     d="M 554,1934.5 467.5,1885 v -95 l 83.5,-49.5 86.5,49.5 v 95 z"
     fill="#ffffff"
     stroke="none"
     id="path349-8-9-4-2-8"
     style="fill:#000000;stroke:#7b7b7b;stroke-opacity:1" />
  <path
     d="M 727,1934.5 640.5,1885 v -95 l 83.5,-49.5 86.5,49.5 v 95 z"
     fill="#ffffff"
     stroke="none"
     id="path350-54-2-8-8"
     style="fill:#ffffff;stroke:#7b7b7b;stroke-opacity:1" />
  <path
     d="M 900,1934.5 813.5,1885 v -95 l 83.5,-49.5 86.5,49.5 v 95 z"
     fill="#ffffff"
     stroke="none"
     id="path350-5-3-7-6-0"
     style="fill:#000000;stroke:#7b7b7b;stroke-opacity:1" />
  <path
     d="M 1073,1934.5 986.5,1885 v -95 l 83.5,-49.5 86.5,49.5 v 95 z"
     fill="#ffffff"
     stroke="none"
     id="path351-12-7-0-8"
     style="fill:#ffffff;stroke:#7b7b7b;stroke-opacity:1" />
  <path
     d="m 1419,1934.5 -86.5,-49.5 v -95 l 83.5,-49.5 86.5,49.5 v 95 z"
     fill="#ffffff"
     stroke="none"
     id="path352-3-9-2-77"
     style="fill:#ffffff;stroke:#7b7b7b;stroke-opacity:1" />
  <path
     d="m 1592,1934.5 -86.5,-49.5 v -95 l 83.5,-49.5 86.5,49.5 v 95 z"
     fill="#ffffff"
     stroke="none"
     id="path352-1-3-3-4-8"
     style="fill:#000000;stroke:#7b7b7b;stroke-opacity:1" />
  <path
     d="m 1765,1934.5 -86.5,-49.5 v -95 l 83.5,-49.5 86.5,49.5 v 95 z"
     fill="#ffffff"
     stroke="none"
     id="path353-4-1-8-3"
     style="fill:#ffffff;stroke:#7b7b7b;stroke-opacity:1" />
  <path
     d="m 1938,1934.5 -86.5,-49.5 v -95 l 83.5,-49.5 86.5,49.5 v 95 z"
     fill="#ffffff"
     stroke="none"
     id="path353-5-1-9-6-8"
     style="fill:#000000;stroke:#7b7b7b;stroke-opacity:1" />
  <path
     d="m 1157,1194.5 -86.5,-49.5 v -95 l 83.5,-49.5 86.5,49.5 v 95 z"
     fill="#ffffff"
     stroke="none"
     id="path351-1-9-3-2"
     style="fill:#ffffff;stroke:#7b7b7b;stroke-opacity:1" />
  <path
     d="M 292,1194.5 205.5,1145 v -95 l 83.5,-49.5 86.5,49.5 v 95 z"
     fill="#ffffff"
     stroke="none"
     id="path349-2-8-6"
     style="fill:#000000;stroke:#7b7b7b;stroke-opacity:1" />
  <path
     d="M 119,1194.5 32.5,1145 v -95 l 83.5,-49.5 86.5,49.5 v 95 z"
     fill="#ffffff"
     stroke="none"
     id="path349-1-7-7-01"
     style="fill:#ffffff;stroke:#7b7b7b;stroke-opacity:1" />
  <path
     d="M 465,1194.5 378.5,1145 v -95 l 83.5,-49.5 86.5,49.5 v 95 z"
     fill="#ffffff"
     stroke="none"
     id="path349-8-9-4-6"
     style="fill:#ffffff;stroke:#7b7b7b;stroke-opacity:1" />
  <path
     d="M 638,1194.5 551.5,1145 v -95 l 83.5,-49.5 86.5,49.5 v 95 z"
     fill="#ffffff"
     stroke="none"
     id="path350-54-2-5"
     style="fill:#000000;stroke:#7b7b7b;stroke-opacity:1" />
  <path
     d="M 811,1194.5 724.5,1145 v -95 l 83.5,-49.5 86.5,49.5 v 95 z"
     fill="#ffffff"
     stroke="none"
     id="path350-5-3-7-7"
     style="fill:#ffffff;stroke:#7b7b7b;stroke-opacity:1" />
  <path
     d="M 984,1194.5 897.5,1145 v -95 l 83.5,-49.5 86.5,49.5 v 95 z"
     fill="#ffffff"
     stroke="none"
     id="path351-12-7-5"
     style="fill:#000000;stroke:#7b7b7b;stroke-opacity:1" />
  <path
     d="m 1330,1194.5 -86.5,-49.5 v -95 l 83.5,-49.5 86.5,49.5 v 95 z"
     fill="#ffffff"
     stroke="none"
     id="path352-3-9-4"
     style="fill:#000000;stroke:#7b7b7b;stroke-opacity:1" />
  <path
     d="m 1503,1194.5 -86.5,-49.5 v -95 l 83.5,-49.5 86.5,49.5 v 95 z"
     fill="#ffffff"
     stroke="none"
     id="path352-1-3-3-1"
     style="fill:#ffffff;stroke:#7b7b7b;stroke-opacity:1" />
  <path
     d="m 1676,1194.5 -86.5,-49.5 v -95 l 83.5,-49.5 86.5,49.5 v 95 z"
     fill="#ffffff"
     stroke="none"
     id="path353-4-1-2"
     style="fill:#000000;stroke:#7b7b7b;stroke-opacity:1" />
  <path
     d="m 1849,1194.5 -86.5,-49.5 v -95 l 83.5,-49.5 86.5,49.5 v 95 z"
     fill="#ffffff"
     stroke="none"
     id="path353-5-1-9-0"
     style="fill:#ffffff;stroke:#7b7b7b;stroke-opacity:1" />
  <path
     d="m 1244,1342.5 -86.5,-49.5 v -95 l 83.5,-49.5 86.5,49.5 v 95 z"
     fill="#ffffff"
     stroke="none"
     id="path351-1-9-3-6-0"
     style="fill:#000000;stroke:#7b7b7b;stroke-opacity:1" />
  <path
     d="M 379,1342.5 292.5,1293 v -95 l 83.5,-49.5 86.5,49.5 v 95 z"
     fill="#ffffff"
     stroke="none"
     id="path349-2-8-5-1"
     style="fill:#ffffff;stroke:#7b7b7b;stroke-opacity:1" />
  <path
     d="M 206,1342.5 119.5,1293 v -95 l 83.5,-49.5 86.5,49.5 v 95 z"
     fill="#ffffff"
     stroke="none"
     id="path349-1-7-7-0-4"
     style="fill:#000000;stroke:#7b7b7b;stroke-opacity:1" />
  <path
     d="M 552,1342.5 465.5,1293 v -95 l 83.5,-49.5 86.5,49.5 v 95 z"
     fill="#ffffff"
     stroke="none"
     id="path349-8-9-4-2-6"
     style="fill:#000000;stroke:#7b7b7b;stroke-opacity:1" />
  <path
     d="M 725,1342.5 638.5,1293 v -95 l 83.5,-49.5 86.5,49.5 v 95 z"
     fill="#ffffff"
     stroke="none"
     id="path350-54-2-8-0"
     style="fill:#ffffff;stroke:#7b7b7b;stroke-opacity:1" />
  <path
     d="M 898,1342.5 811.5,1293 v -95 l 83.5,-49.5 86.5,49.5 v 95 z"
     fill="#ffffff"
     stroke="none"
     id="path350-5-3-7-6-7"
     style="fill:#000000;stroke:#7b7b7b;stroke-opacity:1" />
  <path
     d="M 1071,1342.5 984.5,1293 v -95 l 83.5,-49.5 86.5,49.5 v 95 z"
     fill="#ffffff"
     stroke="none"
     id="path351-12-7-0-1"
     style="fill:#ffffff;stroke:#7b7b7b;stroke-opacity:1" />
  <path
     d="m 1417,1342.5 -86.5,-49.5 v -95 l 83.5,-49.5 86.5,49.5 v 95 z"
     fill="#ffffff"
     stroke="none"
     id="path352-3-9-2-7"
     style="fill:#ffffff;stroke:#7b7b7b;stroke-opacity:1" />
  <path
     d="m 1590,1342.5 -86.5,-49.5 v -95 l 83.5,-49.5 86.5,49.5 v 95 z"
     fill="#ffffff"
     stroke="none"
     id="path352-1-3-3-4-7"
     style="fill:#000000;stroke:#7b7b7b;stroke-opacity:1" />
  <path
     d="m 1763,1342.5 -86.5,-49.5 v -95 l 83.5,-49.5 86.5,49.5 v 95 z"
     fill="#ffffff"
     stroke="none"
     id="path353-4-1-8-7"
     style="fill:#ffffff;stroke:#7b7b7b;stroke-opacity:1" />
  <path
     d="m 1936,1342.5 -86.5,-49.5 v -95 l 83.5,-49.5 86.5,49.5 v 95 z"
     fill="#ffffff"
     stroke="none"
     id="path353-5-1-9-6-7"
     style="fill:#ffffff;stroke:#7b7b7b;stroke-opacity:1" />
  <path
     style="fill:#000000;stroke:#7b7b7b"
     d="m 1893.25,1316.8192 -42.75,-24.4696 v -46.8179 -46.8179 l 40.75,-24.2331 c 22.4125,-13.3282 41.2,-24.2336 41.75,-24.2343 0.55,-7e-4 20.0168,10.892 43.2597,24.2059 l 42.2597,24.2072 -0.2597,46.9922 -0.2598,46.9922 -38,22.511 C 1959.1,1327.5359 1940.65,1338.481 1939,1339.4773 l -3,1.8114 z"
     id="path354" />
  <path
     style="fill:#000000;stroke:#7b7b7b;stroke-width:4"
     d="m 1891.075,722.92548 -40.9249,-22.9255 -0.075,-46.12417 -0.075,-46.12416 35,-20.66487 c 19.2499,-11.36568 38.0544,-21.81571 41.7876,-23.22229 4.3236,-1.62903 21.3854,5.70793 47,20.21102 L 2014,606.84396 v 46.66691 46.6669 l -39.4518,22.91111 c -21.6985,12.6011 -40.1485,22.87758 -41,22.8366 -0.8515,-0.041 -19.9644,-10.39098 -42.4731,-23 z"
     id="path355" />
</svg>
